<svg xmlns="http://www.w3.org/2000/svg" width="820" height="601.482" viewBox="0 0 820 601.482">
  <g id="Grupo_53981" data-name="Grupo 53981" transform="translate(-490 -811)">
    <rect id="hacker-cracking-the-binary-code-data-security" width="820" height="601.482" transform="translate(490 811)" fill="#f3f9ff"/>
    <g id="Grupo_53980" data-name="Grupo 53980" transform="translate(355.646 439.926)">
      <g id="Grupo_53975" data-name="Grupo 53975" transform="translate(345.668 464.696)">
        <path id="Trazado_100847" data-name="Trazado 100847" d="M573.227,1051.1a115.834,115.834,0,0,1-20.536-62.293l-83.829.371a199.266,199.266,0,0,0,36.757,111.5Z" transform="translate(-468.83 -784.71)" fill="#ffca28"/>
        <path id="Trazado_100848" data-name="Trazado 100848" d="M1239.565,985.663l-83.826.371a115.849,115.849,0,0,1-19.984,62.476l68.039,48.975A199.283,199.283,0,0,0,1239.565,985.663Z" transform="translate(-839.095 -782.962)" fill="#ffca28"/>
        <path id="Trazado_100849" data-name="Trazado 100849" d="M1005.892,633.461a116.691,116.691,0,0,1,53.229,38.34l67.6-49.575a200.668,200.668,0,0,0-95.271-68.632Z" transform="translate(-766.994 -543.073)" fill="#ffca28"/>
        <path id="Trazado_100850" data-name="Trazado 100850" d="M1202.044,719.982l-67.608,49.579a115.834,115.834,0,0,1,20.536,62.293l83.828-.371A199.266,199.266,0,0,0,1202.044,719.982Z" transform="translate(-838.363 -635.453)" fill="#ffa726"/>
        <path id="Trazado_100851" data-name="Trazado 100851" d="M468.79,835.064l83.826-.371A115.852,115.852,0,0,1,572.6,772.217l-68.04-48.975A199.283,199.283,0,0,0,468.79,835.064Z" transform="translate(-468.79 -637.263)" fill="#ffa726"/>
        <path id="Trazado_100852" data-name="Trazado 100852" d="M880.032,1231.07a117.028,117.028,0,0,1-65.606.294l-25.558,79.86a201.428,201.428,0,0,0,117.43-.516Z" transform="translate(-646.5 -919.214)" fill="#ffca28"/>
        <path id="Trazado_100853" data-name="Trazado 100853" d="M681.216,1179.295a116.689,116.689,0,0,1-53.228-38.341l-67.6,49.575a200.674,200.674,0,0,0,95.272,68.632Z" transform="translate(-519.644 -869.181)" fill="#ffa726"/>
        <path id="Trazado_100854" data-name="Trazado 100854" d="M1060.96,1139.117a116.722,116.722,0,0,1-52.884,38.816l26.264,79.631A200.717,200.717,0,0,0,1129,1188.1Z" transform="translate(-768.207 -868.161)" fill="#ffa726"/>
        <path id="Trazado_100855" data-name="Trazado 100855" d="M811.323,618.586a117.033,117.033,0,0,1,65.606-.294l25.558-79.86a201.427,201.427,0,0,0-117.43.516Z" transform="translate(-644.384 -529.941)" fill="#ffa726"/>
        <path id="Trazado_100856" data-name="Trazado 100856" d="M626.028,673.34a116.719,116.719,0,0,1,52.883-38.816l-26.264-79.631a200.719,200.719,0,0,0-94.665,69.467Z" transform="translate(-518.311 -543.795)" fill="#ffca28"/>
      </g>
      <circle id="Elipse_4067" data-name="Elipse 4067" cx="35.754" cy="35.754" r="35.754" transform="translate(510.149 629.193)" fill="#639cff"/>
      <path id="Trazado_100857" data-name="Trazado 100857" d="M818.822,772.631l-17.965,23.93-6.316,8.411v-8.393a50.516,50.516,0,0,0-46.868,44.354l-22.222-19.206L700.77,837.735a97.491,97.491,0,0,1,93.771-88.189V740.29l6.957,9.265Z" transform="translate(-251.919 -182.032)" fill="#039be5"/>
      <path id="Trazado_100858" data-name="Trazado 100858" d="M1029.871,865.481l-10.55,6.543L995.5,886.791,972.68,866.246l-7.232-6.512,7.779.694c.027-.623.04-1.254.04-1.886a50.507,50.507,0,0,0-47.477-50.417l17.965-23.93L926.43,761.12a97.5,97.5,0,0,1,93.815,97.423q0,3.056-.187,6.063Z" transform="translate(-376.852 -193.597)" fill="#4dd0e1"/>
      <path id="Trazado_100859" data-name="Trazado 100859" d="M981.361,1003.248A97.51,97.51,0,0,1,884.8,1087.26q-3.316,0-6.583-.218l-1.472,10.017-5.867-10.791-13.455-24.735,21.764-21.568,6.961-6.9-1.059,7.206a50.509,50.509,0,0,0,49.634-42.8l22.822,20.545Z" transform="translate(-338.893 -324.821)" fill="#039be5"/>
      <path id="Trazado_100860" data-name="Trazado 100860" d="M758.9,1020.4l13.455,24.735a97.509,97.509,0,0,1-83.567-96.5c0-.881.013-1.761.036-2.638l-8.847-.609,9.247-6,24.681-16.008,22.222,19.206,8.371,7.237-8.722-.6a50.5,50.5,0,0,0,44.888,49.608Z" transform="translate(-240.376 -283.685)" fill="#4dd0e1"/>
      <g id="Grupo_53976" data-name="Grupo 53976" transform="translate(493.27 593.833)">
        <path id="Trazado_100861" data-name="Trazado 100861" d="M806.453,859.783l2.183,2.41L807,863.672l-6.368-7.032,2.685-2.432a3.944,3.944,0,0,1,2.562-1.16,3.072,3.072,0,0,1,3.033,3.349,3.95,3.95,0,0,1-1.41,2.433Zm-1.137-1.256,1.053-.953a1.447,1.447,0,0,0,.547-1.027,1.4,1.4,0,0,0-.4-1,1.461,1.461,0,0,0-.973-.516,1.424,1.424,0,0,0-1.085.437l-1.053.953Z" transform="translate(-800.636 -838.469)" fill="#12263f"/>
        <path id="Trazado_100862" data-name="Trazado 100862" d="M822.79,850.774l3.319-2.36.982,1.381-5.114,3.636-5.5-7.732,1.8-1.276Z" transform="translate(-809.433 -833.68)" fill="#12263f"/>
        <path id="Trazado_100863" data-name="Trazado 100863" d="M842.732,838.025l-2.479,1.347.4,1.882-2.038,1.107-1.809-9.813,1.036-.563,0,.006,0-.009,1.036-.563,7.254,6.856-2.038,1.108Zm-2.841-.384,1.586-.862-2.185-2.165-.034.019Z" transform="translate(-820.717 -826.46)" fill="#12263f"/>
        <path id="Trazado_100864" data-name="Trazado 100864" d="M861.741,829.136l-2.052.781-5.37-4.34-.032.026,2.12,5.565-2.058.784-3.378-8.865,2.058-.784,5.368,4.334.032-.026-2.118-5.559,2.052-.782Z" transform="translate(-828.582 -820.271)" fill="#12263f"/>
      </g>
      <g id="Grupo_53977" data-name="Grupo 53977" transform="translate(480.407 697.989)">
        <path id="Trazado_100865" data-name="Trazado 100865" d="M804.26,1080.621l2.005,1.985,1.686-.926,1.648,1.632-8.873,4.564-.838-.83,0,0h-.009l-.838-.83,4.47-8.924,1.648,1.632Zm.452,2.831-1.282-1.27-1.442,2.716.028.028Z" transform="translate(-786.889 -1067.126)" fill="#12263f"/>
        <path id="Trazado_100866" data-name="Trazado 100866" d="M788.155,1067.14l.023-.034a3.048,3.048,0,0,1,2.5-.8,3.883,3.883,0,0,1,2.306,1.581,3.676,3.676,0,0,1-.656,5.461l-1.558,1.224a3.908,3.908,0,0,1-2.845.93,3.571,3.571,0,0,1-2.524-1.468,4.184,4.184,0,0,1-1.064-2.714,2.964,2.964,0,0,1,1.328-2.265l.043-.009,1.324,1.686a1.742,1.742,0,0,0-.754,1.064,1.654,1.654,0,0,0,.456,1.192,1.288,1.288,0,0,0,1.173.528,2.819,2.819,0,0,0,1.493-.668l1.568-1.231a2.655,2.655,0,0,0,.986-1.33,1.452,1.452,0,0,0-.3-1.354,1.394,1.394,0,0,0-.971-.625,1.9,1.9,0,0,0-1.2.517Z" transform="translate(-778.722 -1061.006)" fill="#12263f"/>
        <path id="Trazado_100867" data-name="Trazado 100867" d="M773.159,1056.376l1.312,2.139,6.643-4.074,1.152,1.877-6.643,4.074,1.288,2.1-1.444.886-3.75-6.115Z" transform="translate(-771.715 -1054.44)" fill="#12263f"/>
      </g>
      <g id="Grupo_53978" data-name="Grupo 53978" transform="translate(590.762 611.139)">
        <path id="Trazado_100868" data-name="Trazado 100868" d="M1019.822,865.692l6.9-6.513,2.384,2.525a3.869,3.869,0,0,1,1.13,2.787,3.726,3.726,0,0,1-1.261,2.741l-1.242,1.172a3.72,3.72,0,0,1-2.811,1.1,3.874,3.874,0,0,1-2.715-1.29Zm7.177-3.749-4.434,4.187.872.924a1.51,1.51,0,0,0,1.293.477,2.469,2.469,0,0,0,1.484-.734l1.251-1.181a2.452,2.452,0,0,0,.808-1.431,1.51,1.51,0,0,0-.4-1.318Z" transform="translate(-1019.822 -859.179)" fill="#12263f"/>
        <path id="Trazado_100869" data-name="Trazado 100869" d="M1042.121,886.525a3.966,3.966,0,0,1-2.994.787,3.879,3.879,0,0,1-2.619-1.691,3.866,3.866,0,0,1,.9-5.636l1.385-1a3.956,3.956,0,0,1,3-.78,4.285,4.285,0,0,1,3.4,4.724,3.949,3.949,0,0,1-1.687,2.6Zm.112-2.787a2.744,2.744,0,0,0,1.073-1.363,1.744,1.744,0,0,0-1.585-2.207,2.769,2.769,0,0,0-1.632.593l-1.4,1.005a2.766,2.766,0,0,0-1.084,1.371,1.6,1.6,0,0,0,.273,1.494,1.566,1.566,0,0,0,1.313.708,2.778,2.778,0,0,0,1.642-.6Z" transform="translate(-1028.619 -869.718)" fill="#12263f"/>
      </g>
      <g id="Grupo_53979" data-name="Grupo 53979" transform="translate(559.018 710.454)">
        <path id="Trazado_100870" data-name="Trazado 100870" d="M1018.538,1088.546l-.037-.019a3.049,3.049,0,0,1-1.059-2.4,3.883,3.883,0,0,1,1.328-2.461,3.677,3.677,0,0,1,5.5.076l1.381,1.42a3.908,3.908,0,0,1,1.225,2.731,3.571,3.571,0,0,1-1.193,2.665,4.183,4.183,0,0,1-2.587,1.345,2.963,2.963,0,0,1-2.392-1.081l-.013-.042,1.536-1.495a1.746,1.746,0,0,0,1.139.638,1.658,1.658,0,0,0,1.136-.579,1.288,1.288,0,0,0,.4-1.223,2.824,2.824,0,0,0-.822-1.414l-1.39-1.429a2.656,2.656,0,0,0-1.426-.84,1.454,1.454,0,0,0-1.315.443,1.391,1.391,0,0,0-.519,1.032,1.894,1.894,0,0,0,.64,1.14Z" transform="translate(-986.753 -1082.466)" fill="#12263f"/>
        <path id="Trazado_100871" data-name="Trazado 100871" d="M999.031,1097.091l1.762-1.31,2.277,3.065,2.819-2.095-2.277-3.064,1.768-1.313,5.659,7.614-1.767,1.313-2.371-3.19-2.819,2.095,2.371,3.19-1.763,1.31Z" transform="translate(-976.534 -1087.966)" fill="#12263f"/>
        <path id="Trazado_100872" data-name="Trazado 100872" d="M987.076,1110.622l2.91-1.644-1.163-2.059-3.489,1.971-.834-1.474,5.406-3.055,4.666,8.26-5.412,3.057-.833-1.475,3.494-1.974-1-1.775-2.91,1.644Z" transform="translate(-968.467 -1094.622)" fill="#12263f"/>
        <path id="Trazado_100873" data-name="Trazado 100873" d="M969.735,1119.153l-.027-.031a3.05,3.05,0,0,1-.1-2.623,3.882,3.882,0,0,1,2.14-1.8,3.676,3.676,0,0,1,5.088,2.092l.763,1.828a3.913,3.913,0,0,1,.136,2.99,3.573,3.573,0,0,1-2.089,2.04,4.181,4.181,0,0,1-2.9.3,2.965,2.965,0,0,1-1.828-1.885l0-.043,1.978-.826a1.743,1.743,0,0,0,.824,1.011,1.656,1.656,0,0,0,1.27-.12,1.288,1.288,0,0,0,.822-.99,2.816,2.816,0,0,0-.244-1.617l-.768-1.84a2.653,2.653,0,0,0-1.018-1.305,1.453,1.453,0,0,0-1.385-.071,1.392,1.392,0,0,0-.862.769,1.9,1.9,0,0,0,.177,1.3Z" transform="translate(-960.058 -1100.16)" fill="#12263f"/>
        <path id="Trazado_100874" data-name="Trazado 100874" d="M954.293,1123.6l.591-.162-1.008-3.669,2.123-.583,2.513,9.147-2.123.584-.984-3.582-.44.121-1.083,4.149-2.67.734,1.735-4.95-4.493-4.13,2.727-.749Z" transform="translate(-948.453 -1102.851)" fill="#12263f"/>
      </g>
      <path id="Trazado_109819" data-name="Trazado 109819" d="M-17.926-2.38a1.116,1.116,0,0,0-.428-.939A5.155,5.155,0,0,0-19.9-3.986a7.464,7.464,0,0,1-1.777-.749A2.372,2.372,0,0,1-22.94-6.8a2.252,2.252,0,0,1,.911-1.841,3.687,3.687,0,0,1,2.365-.724,3.994,3.994,0,0,1,1.72.355A2.823,2.823,0,0,1-16.758-8a2.6,2.6,0,0,1,.432,1.457h-1.6a1.43,1.43,0,0,0-.454-1.124,1.883,1.883,0,0,0-1.3-.406,1.962,1.962,0,0,0-1.222.335,1.114,1.114,0,0,0-.435.936,1.008,1.008,0,0,0,.47.844,5.423,5.423,0,0,0,1.549.657,7.093,7.093,0,0,1,1.733.729,2.756,2.756,0,0,1,.958.939,2.447,2.447,0,0,1,.3,1.241,2.2,2.2,0,0,1-.885,1.838,3.841,3.841,0,0,1-2.4.682,4.515,4.515,0,0,1-1.844-.371A3.1,3.1,0,0,1-22.76-1.27a2.555,2.555,0,0,1-.467-1.523h1.606A1.5,1.5,0,0,0-21.1-1.574a2.279,2.279,0,0,0,1.492.432,1.98,1.98,0,0,0,1.26-.34A1.1,1.1,0,0,0-17.926-2.38ZM-12.035.127A3.191,3.191,0,0,1-14.412-.8a3.35,3.35,0,0,1-.911-2.46v-.19a4.121,4.121,0,0,1,.4-1.838,3.02,3.02,0,0,1,1.114-1.26A2.945,2.945,0,0,1-12.213-7a2.7,2.7,0,0,1,2.168.9A3.785,3.785,0,0,1-9.28-3.567v.622h-4.488A2.063,2.063,0,0,0-13.2-1.6a1.706,1.706,0,0,0,1.254.5,2.089,2.089,0,0,0,1.727-.857l.832.793a2.777,2.777,0,0,1-1.1.955A3.448,3.448,0,0,1-12.035.127Zm-.184-5.884a1.3,1.3,0,0,0-1.025.444,2.3,2.3,0,0,0-.5,1.238H-10.8v-.114a1.875,1.875,0,0,0-.413-1.171A1.289,1.289,0,0,0-12.219-5.757ZM-5.262-1.1A1.4,1.4,0,0,0-4.3-1.441,1.149,1.149,0,0,0-3.9-2.272h1.454a2.266,2.266,0,0,1-.4,1.2A2.623,2.623,0,0,1-3.859-.2,3.027,3.027,0,0,1-5.243.127,2.928,2.928,0,0,1-7.528-.806a3.7,3.7,0,0,1-.844-2.577v-.159a3.639,3.639,0,0,1,.838-2.51A2.9,2.9,0,0,1-5.25-7a2.822,2.822,0,0,1,2,.714,2.558,2.558,0,0,1,.809,1.876H-3.9a1.412,1.412,0,0,0-.4-.971,1.3,1.3,0,0,0-.962-.381,1.357,1.357,0,0,0-1.155.543A2.769,2.769,0,0,0-6.83-3.567v.248a2.815,2.815,0,0,0,.4,1.666A1.356,1.356,0,0,0-5.262-1.1Zm8.144.432a2.392,2.392,0,0,1-1.93.8A2.132,2.132,0,0,1-.74-.527a2.781,2.781,0,0,1-.574-1.892v-4.45H.229v4.431q0,1.308,1.085,1.308a1.524,1.524,0,0,0,1.517-.806V-6.868H4.374V0H2.92ZM9.541-5.459a3.817,3.817,0,0,0-.628-.051A1.415,1.415,0,0,0,7.484-4.7V0H5.941V-6.868H7.414l.038.768A1.738,1.738,0,0,1,9-7a1.444,1.444,0,0,1,.546.089ZM12.156,0H10.613V-6.868h1.542ZM10.518-8.658a.828.828,0,0,1,.225-.595.847.847,0,0,1,.644-.237.858.858,0,0,1,.647.237.822.822,0,0,1,.229.595.8.8,0,0,1-.229.585.865.865,0,0,1-.647.233.854.854,0,0,1-.644-.233A.809.809,0,0,1,10.518-8.658Zm5.25.121v1.669H16.98v1.143H15.768v3.834a.844.844,0,0,0,.156.568.721.721,0,0,0,.555.175,2.376,2.376,0,0,0,.54-.063V-.019A3.8,3.8,0,0,1,16,.127q-1.777,0-1.777-1.961V-5.726H13.1V-6.868h1.13V-8.538ZM20.56-2.209l1.4-4.659H23.6L20.871,1.041a2.218,2.218,0,0,1-2.133,1.733A2.75,2.75,0,0,1,18,2.659V1.46l.292.019a1.5,1.5,0,0,0,.879-.212,1.409,1.409,0,0,0,.467-.714l.222-.59L17.443-6.868h1.663ZM-15.155,12.572V16h-1.606V6.758h3.536a3.575,3.575,0,0,1,2.46.807A2.714,2.714,0,0,1-9.855,9.7a2.623,2.623,0,0,1-.892,2.116,3.748,3.748,0,0,1-2.5.756Zm0-1.295h1.93a1.9,1.9,0,0,0,1.308-.4,1.481,1.481,0,0,0,.451-1.165,1.6,1.6,0,0,0-.457-1.2,1.762,1.762,0,0,0-1.257-.46h-1.974ZM-8.972,12.5a4.05,4.05,0,0,1,.4-1.819A2.921,2.921,0,0,1-7.449,9.44,3.166,3.166,0,0,1-5.786,9a3,3,0,0,1,2.257.9,3.52,3.52,0,0,1,.936,2.374l.006.362a4.086,4.086,0,0,1-.39,1.815,2.886,2.886,0,0,1-1.117,1.238,3.189,3.189,0,0,1-1.679.438A2.979,2.979,0,0,1-8.1,15.159a3.707,3.707,0,0,1-.873-2.58Zm1.542.133a2.767,2.767,0,0,0,.438,1.66,1.424,1.424,0,0,0,1.219.6,1.408,1.408,0,0,0,1.216-.609A3.057,3.057,0,0,0-4.123,12.5a2.732,2.732,0,0,0-.448-1.65,1.429,1.429,0,0,0-1.216-.609,1.416,1.416,0,0,0-1.2.6A3,3,0,0,0-7.43,12.636ZM.359,16H-1.184V6.25H.359Zm3.32,0H2.136V9.132H3.678ZM2.041,7.342a.828.828,0,0,1,.225-.595A.847.847,0,0,1,2.91,6.51a.858.858,0,0,1,.647.237.822.822,0,0,1,.229.595.8.8,0,0,1-.229.585.865.865,0,0,1-.647.233.854.854,0,0,1-.644-.233A.809.809,0,0,1,2.041,7.342ZM8.179,14.9a1.4,1.4,0,0,0,.958-.336,1.149,1.149,0,0,0,.406-.832H11a2.266,2.266,0,0,1-.4,1.2,2.623,2.623,0,0,1-1.016.879,3.027,3.027,0,0,1-1.384.324,2.928,2.928,0,0,1-2.285-.933,3.7,3.7,0,0,1-.844-2.577v-.159a3.639,3.639,0,0,1,.838-2.51A2.9,2.9,0,0,1,8.192,9a2.822,2.822,0,0,1,2,.714A2.558,2.558,0,0,1,11,11.595H9.544a1.412,1.412,0,0,0-.4-.971,1.3,1.3,0,0,0-.962-.381,1.357,1.357,0,0,0-1.155.543,2.769,2.769,0,0,0-.413,1.647v.248a2.815,2.815,0,0,0,.4,1.666A1.356,1.356,0,0,0,8.179,14.9Zm6.386-1.1,1.4-4.659h1.644l-2.729,7.909a2.218,2.218,0,0,1-2.133,1.733A2.75,2.75,0,0,1,12,18.659v-1.2l.292.019a1.5,1.5,0,0,0,.879-.212,1.409,1.409,0,0,0,.467-.714l.222-.59L11.448,9.132h1.663Z" transform="translate(546.287 419.428)" fill="#12263f"/>
      <path id="Trazado_109818" data-name="Trazado 109818" d="M-24.562-2.777A3.08,3.08,0,0,1-25.57-.647a3.436,3.436,0,0,1-2.338.765,3.327,3.327,0,0,1-1.8-.483A3.173,3.173,0,0,1-30.9-1.74a4.958,4.958,0,0,1-.439-2.068v-.8a4.994,4.994,0,0,1,.428-2.127A3.224,3.224,0,0,1-29.687-8.15a3.424,3.424,0,0,1,1.849-.5,3.3,3.3,0,0,1,2.273.765,3.2,3.2,0,0,1,1,2.165h-1.477a2.107,2.107,0,0,0-.536-1.327,1.772,1.772,0,0,0-1.263-.407,1.731,1.731,0,0,0-1.485.707,3.532,3.532,0,0,0-.53,2.073v.757a3.747,3.747,0,0,0,.5,2.111,1.643,1.643,0,0,0,1.45.727A1.917,1.917,0,0,0-26.6-1.471a2.047,2.047,0,0,0,.557-1.307Zm.92-.451a3.738,3.738,0,0,1,.369-1.679,2.7,2.7,0,0,1,1.037-1.148,2.922,2.922,0,0,1,1.535-.4,2.769,2.769,0,0,1,2.083.826,3.249,3.249,0,0,1,.864,2.191l.006.334a3.772,3.772,0,0,1-.36,1.676A2.664,2.664,0,0,1-19.14-.287a2.944,2.944,0,0,1-1.55.4,2.75,2.75,0,0,1-2.147-.894,3.422,3.422,0,0,1-.806-2.382Zm1.424.123a2.555,2.555,0,0,0,.4,1.532,1.314,1.314,0,0,0,1.125.554,1.3,1.3,0,0,0,1.122-.562,2.822,2.822,0,0,0,.4-1.646,2.522,2.522,0,0,0-.413-1.523A1.319,1.319,0,0,0-20.7-5.314a1.307,1.307,0,0,0-1.107.554A2.768,2.768,0,0,0-22.219-3.105Zm7.014-3.234.041.662a2.281,2.281,0,0,1,1.828-.779,1.753,1.753,0,0,1,1.74.973A2.249,2.249,0,0,1-9.65-6.457a1.977,1.977,0,0,1,1.562.58,2.554,2.554,0,0,1,.524,1.711V0H-8.988V-4.125a1.261,1.261,0,0,0-.264-.885,1.154,1.154,0,0,0-.873-.281,1.185,1.185,0,0,0-.794.261,1.375,1.375,0,0,0-.431.683L-11.344,0h-1.424V-4.172A1.016,1.016,0,0,0-13.91-5.291a1.253,1.253,0,0,0-1.213.7V0h-1.424V-6.34ZM-.551-3.105A3.775,3.775,0,0,1-1.219-.759,2.139,2.139,0,0,1-3.012.117a2.154,2.154,0,0,1-1.67-.686V2.438H-6.105V-6.34h1.313l.059.645a2.091,2.091,0,0,1,1.705-.762,2.161,2.161,0,0,1,1.819.864,3.875,3.875,0,0,1,.659,2.4Zm-1.418-.123a2.644,2.644,0,0,0-.378-1.506,1.229,1.229,0,0,0-1.081-.557,1.31,1.31,0,0,0-1.254.721v2.813a1.322,1.322,0,0,0,1.266.738,1.227,1.227,0,0,0,1.063-.548A2.911,2.911,0,0,0-1.969-3.229ZM2.168,0H.744V-9H2.168ZM5.232,0H3.809V-6.34H5.232ZM3.721-7.992a.765.765,0,0,1,.208-.549.782.782,0,0,1,.595-.218.792.792,0,0,1,.6.218.759.759,0,0,1,.211.549.741.741,0,0,1-.211.54.8.8,0,0,1-.6.216.788.788,0,0,1-.595-.216A.747.747,0,0,1,3.721-7.992ZM10.57,0a2.2,2.2,0,0,1-.164-.592A2.216,2.216,0,0,1,8.742.117,2.237,2.237,0,0,1,7.184-.428a1.743,1.743,0,0,1-.6-1.348,1.8,1.8,0,0,1,.753-1.556,3.649,3.649,0,0,1,2.153-.542h.873v-.416a1.11,1.11,0,0,0-.275-.788,1.092,1.092,0,0,0-.838-.3,1.254,1.254,0,0,0-.8.243.753.753,0,0,0-.311.618H6.715a1.58,1.58,0,0,1,.346-.976A2.3,2.3,0,0,1,8-6.2a3.3,3.3,0,0,1,1.327-.258A2.66,2.66,0,0,1,11.1-5.9a2,2,0,0,1,.68,1.573v2.859A3.241,3.241,0,0,0,12.023-.1V0ZM9.006-1.025A1.62,1.62,0,0,0,9.8-1.23a1.37,1.37,0,0,0,.56-.551v-1.2H9.592A2.1,2.1,0,0,0,8.4-2.7a.892.892,0,0,0-.4.779.832.832,0,0,0,.272.653A1.055,1.055,0,0,0,9.006-1.025ZM14.6-6.34l.041.732a2.28,2.28,0,0,1,1.846-.85q1.98,0,2.016,2.268V0H17.074V-4.107A1.306,1.306,0,0,0,16.813-5a1.1,1.1,0,0,0-.853-.29,1.372,1.372,0,0,0-1.283.779V0H13.254V-6.34Zm7.957,5.32a1.287,1.287,0,0,0,.885-.311,1.061,1.061,0,0,0,.375-.768h1.342a2.091,2.091,0,0,1-.369,1.1,2.421,2.421,0,0,1-.937.812,2.794,2.794,0,0,1-1.277.3,2.7,2.7,0,0,1-2.109-.861,3.416,3.416,0,0,1-.779-2.379V-3.27a3.359,3.359,0,0,1,.773-2.317,2.678,2.678,0,0,1,2.109-.87,2.6,2.6,0,0,1,1.843.659,2.361,2.361,0,0,1,.747,1.731H23.813a1.3,1.3,0,0,0-.372-.9,1.2,1.2,0,0,0-.888-.352,1.253,1.253,0,0,0-1.066.5,2.556,2.556,0,0,0-.381,1.521v.229a2.6,2.6,0,0,0,.372,1.538A1.252,1.252,0,0,0,22.553-1.02ZM29.021.117a2.946,2.946,0,0,1-2.194-.853,3.093,3.093,0,0,1-.841-2.271v-.176a3.8,3.8,0,0,1,.366-1.7,2.787,2.787,0,0,1,1.028-1.163,2.719,2.719,0,0,1,1.477-.416,2.488,2.488,0,0,1,2,.826,3.494,3.494,0,0,1,.706,2.338v.574H27.422a1.9,1.9,0,0,0,.524,1.242A1.574,1.574,0,0,0,29.1-1.02,1.928,1.928,0,0,0,30.7-1.811l.768.732A2.563,2.563,0,0,1,30.448-.2,3.183,3.183,0,0,1,29.021.117Zm-.17-5.432a1.2,1.2,0,0,0-.946.41,2.126,2.126,0,0,0-.46,1.143h2.713v-.105a1.731,1.731,0,0,0-.381-1.081A1.19,1.19,0,0,0,28.852-5.314Z" transform="translate(379.208 481.621)" fill="#12263f"/>
      <path id="Trazado_109827" data-name="Trazado 109827" d="M-52.14,0V-9.242h3.167a3.867,3.867,0,0,1,2.387.628,2.213,2.213,0,0,1,.819,1.873A2,2,0,0,1-46.109-5.6a2.206,2.206,0,0,1-1,.787,2.04,2.04,0,0,1,1.158.765A2.228,2.228,0,0,1-45.544-2.7a2.46,2.46,0,0,1-.835,2,3.629,3.629,0,0,1-2.39.7Zm1.606-4.17v2.875h1.784a1.731,1.731,0,0,0,1.181-.373A1.306,1.306,0,0,0-47.144-2.7,1.316,1.316,0,0,0-48.617-4.17Zm0-1.181h1.574a1.821,1.821,0,0,0,1.171-.34,1.164,1.164,0,0,0,.422-.962,1.179,1.179,0,0,0-.39-.99,1.971,1.971,0,0,0-1.216-.3h-1.562ZM-39.927-.673a2.392,2.392,0,0,1-1.93.8,2.132,2.132,0,0,1-1.692-.654,2.781,2.781,0,0,1-.574-1.892v-4.45h1.542v4.431q0,1.308,1.085,1.308a1.524,1.524,0,0,0,1.517-.806V-6.868h1.542V0h-1.454Zm6.913-1.193a.7.7,0,0,0-.34-.628,3.612,3.612,0,0,0-1.127-.381,5.792,5.792,0,0,1-1.314-.419A1.754,1.754,0,0,1-36.95-4.913,1.828,1.828,0,0,1-36.2-6.4,2.961,2.961,0,0,1-34.3-7a3.081,3.081,0,0,1,1.99.609,1.934,1.934,0,0,1,.759,1.581H-33.09a.951.951,0,0,0-.33-.74,1.265,1.265,0,0,0-.876-.3,1.367,1.367,0,0,0-.828.235.74.74,0,0,0-.321.628.625.625,0,0,0,.3.552,4.1,4.1,0,0,0,1.206.4,5.709,5.709,0,0,1,1.425.476,2.018,2.018,0,0,1,.768.663,1.692,1.692,0,0,1,.251.939,1.789,1.789,0,0,1-.768,1.5,3.275,3.275,0,0,1-2.012.574,3.551,3.551,0,0,1-1.5-.3,2.476,2.476,0,0,1-1.028-.838,1.983,1.983,0,0,1-.368-1.149h1.5a1.087,1.087,0,0,0,.413.841,1.6,1.6,0,0,0,1.009.3,1.56,1.56,0,0,0,.927-.232A.717.717,0,0,0-33.014-1.866ZM-28.514,0h-1.542V-6.868h1.542Zm-1.638-8.658a.828.828,0,0,1,.225-.595.847.847,0,0,1,.644-.237.858.858,0,0,1,.647.237.822.822,0,0,1,.229.595.8.8,0,0,1-.229.585.865.865,0,0,1-.647.233.854.854,0,0,1-.644-.233A.809.809,0,0,1-30.151-8.658Zm4.748,1.79.044.793a2.469,2.469,0,0,1,2-.92q2.146,0,2.184,2.457V0h-1.542V-4.45A1.414,1.414,0,0,0-23-5.418a1.188,1.188,0,0,0-.924-.314,1.486,1.486,0,0,0-1.39.844V0h-1.542V-6.868Zm8.823,7A3.191,3.191,0,0,1-18.957-.8a3.35,3.35,0,0,1-.911-2.46v-.19a4.121,4.121,0,0,1,.4-1.838,3.02,3.02,0,0,1,1.114-1.26A2.945,2.945,0,0,1-16.758-7a2.7,2.7,0,0,1,2.168.9,3.785,3.785,0,0,1,.765,2.533v.622h-4.488A2.063,2.063,0,0,0-17.745-1.6a1.706,1.706,0,0,0,1.254.5,2.089,2.089,0,0,0,1.727-.857l.832.793a2.777,2.777,0,0,1-1.1.955A3.448,3.448,0,0,1-16.58.127Zm-.184-5.884a1.3,1.3,0,0,0-1.025.444,2.3,2.3,0,0,0-.5,1.238h2.939v-.114a1.875,1.875,0,0,0-.413-1.171A1.289,1.289,0,0,0-16.764-5.757Zm7.985,3.891a.7.7,0,0,0-.34-.628,3.612,3.612,0,0,0-1.127-.381,5.792,5.792,0,0,1-1.314-.419,1.754,1.754,0,0,1-1.155-1.619A1.828,1.828,0,0,1-11.965-6.4a2.961,2.961,0,0,1,1.9-.6,3.081,3.081,0,0,1,1.99.609,1.934,1.934,0,0,1,.759,1.581H-8.855a.951.951,0,0,0-.33-.74,1.265,1.265,0,0,0-.876-.3,1.367,1.367,0,0,0-.828.235.74.74,0,0,0-.321.628.625.625,0,0,0,.3.552,4.1,4.1,0,0,0,1.206.4,5.709,5.709,0,0,1,1.425.476,2.018,2.018,0,0,1,.768.663,1.692,1.692,0,0,1,.251.939,1.789,1.789,0,0,1-.768,1.5,3.275,3.275,0,0,1-2.012.574,3.551,3.551,0,0,1-1.5-.3,2.476,2.476,0,0,1-1.028-.838,1.983,1.983,0,0,1-.368-1.149h1.5a1.087,1.087,0,0,0,.413.841,1.6,1.6,0,0,0,1.009.3A1.56,1.56,0,0,0-9.1-1.26.717.717,0,0,0-8.779-1.866Zm6.709,0a.7.7,0,0,0-.34-.628,3.612,3.612,0,0,0-1.127-.381A5.792,5.792,0,0,1-4.85-3.294,1.754,1.754,0,0,1-6-4.913,1.828,1.828,0,0,1-5.256-6.4a2.961,2.961,0,0,1,1.9-.6,3.081,3.081,0,0,1,1.99.609A1.934,1.934,0,0,1-.6-4.805H-2.146a.951.951,0,0,0-.33-.74,1.265,1.265,0,0,0-.876-.3A1.367,1.367,0,0,0-4.18-5.6a.74.74,0,0,0-.321.628.625.625,0,0,0,.3.552A4.1,4.1,0,0,0-3-4.028a5.709,5.709,0,0,1,1.425.476A2.018,2.018,0,0,1-.8-2.888a1.692,1.692,0,0,1,.251.939,1.789,1.789,0,0,1-.768,1.5A3.275,3.275,0,0,1-3.333.127a3.551,3.551,0,0,1-1.5-.3,2.476,2.476,0,0,1-1.028-.838,1.983,1.983,0,0,1-.368-1.149h1.5a1.087,1.087,0,0,0,.413.841,1.6,1.6,0,0,0,1.009.3,1.56,1.56,0,0,0,.927-.232A.717.717,0,0,0-2.069-1.866ZM-51.194,12.991A3.337,3.337,0,0,1-52.286,15.3a3.722,3.722,0,0,1-2.533.828,3.6,3.6,0,0,1-1.946-.524,3.437,3.437,0,0,1-1.3-1.489,5.372,5.372,0,0,1-.476-2.241v-.863a5.411,5.411,0,0,1,.463-2.3,3.492,3.492,0,0,1,1.33-1.536,3.709,3.709,0,0,1,2-.54,3.572,3.572,0,0,1,2.463.828A3.461,3.461,0,0,1-51.194,9.8h-1.6a2.283,2.283,0,0,0-.581-1.438,1.92,1.92,0,0,0-1.368-.441,1.875,1.875,0,0,0-1.609.766,3.826,3.826,0,0,0-.574,2.246v.82a4.059,4.059,0,0,0,.536,2.287,1.78,1.78,0,0,0,1.571.788,2.076,2.076,0,0,0,1.422-.425,2.218,2.218,0,0,0,.6-1.416Zm1-.489a4.05,4.05,0,0,1,.4-1.819A2.921,2.921,0,0,1-48.674,9.44,3.166,3.166,0,0,1-47.011,9a3,3,0,0,1,2.257.9,3.52,3.52,0,0,1,.936,2.374l.006.362a4.086,4.086,0,0,1-.39,1.815,2.886,2.886,0,0,1-1.117,1.238A3.189,3.189,0,0,1-47,16.127a2.979,2.979,0,0,1-2.326-.968,3.707,3.707,0,0,1-.873-2.58Zm1.542.133a2.767,2.767,0,0,0,.438,1.66A1.424,1.424,0,0,0-47,14.9a1.408,1.408,0,0,0,1.216-.609,3.057,3.057,0,0,0,.435-1.784,2.732,2.732,0,0,0-.448-1.65,1.429,1.429,0,0,0-1.216-.609,1.416,1.416,0,0,0-1.2.6A3,3,0,0,0-48.655,12.636Zm7.579-3.5.044.793a2.469,2.469,0,0,1,2-.92q2.146,0,2.184,2.457V16h-1.542V11.55a1.414,1.414,0,0,0-.282-.968,1.188,1.188,0,0,0-.924-.314,1.486,1.486,0,0,0-1.39.844V16h-1.542V9.132Zm7.731-1.669V9.132h1.212v1.143h-1.212v3.834a.844.844,0,0,0,.156.568.721.721,0,0,0,.555.175,2.376,2.376,0,0,0,.54-.063v1.193a3.8,3.8,0,0,1-1.016.146q-1.777,0-1.777-1.961V10.274h-1.13V9.132h1.13V7.462ZM-29.313,16h-1.542V9.132h1.542Zm-1.638-8.658a.828.828,0,0,1,.225-.595.847.847,0,0,1,.644-.237.858.858,0,0,1,.647.237.822.822,0,0,1,.229.595.8.8,0,0,1-.229.585.865.865,0,0,1-.647.233.854.854,0,0,1-.644-.233A.809.809,0,0,1-30.951,7.342Zm4.748,1.79.044.793a2.469,2.469,0,0,1,2-.92q2.146,0,2.184,2.457V16h-1.542V11.55a1.414,1.414,0,0,0-.282-.968,1.188,1.188,0,0,0-.924-.314,1.486,1.486,0,0,0-1.39.844V16h-1.542V9.132Zm9.959,6.2a2.392,2.392,0,0,1-1.93.8,2.132,2.132,0,0,1-1.692-.654,2.781,2.781,0,0,1-.574-1.892V9.132H-18.9v4.431q0,1.308,1.085,1.308a1.524,1.524,0,0,0,1.517-.806V9.132h1.542V16h-1.454Zm4.7.673h-1.542V9.132h1.542Zm-1.638-8.658a.828.828,0,0,1,.225-.595.847.847,0,0,1,.644-.237.858.858,0,0,1,.647.237.822.822,0,0,1,.229.595.8.8,0,0,1-.229.585.865.865,0,0,1-.647.233.854.854,0,0,1-.644-.233A.809.809,0,0,1-13.178,7.342Zm5.25.121V9.132h1.212v1.143H-7.928v3.834a.844.844,0,0,0,.156.568.721.721,0,0,0,.555.175,2.376,2.376,0,0,0,.54-.063v1.193a3.8,3.8,0,0,1-1.016.146q-1.777,0-1.777-1.961V10.274H-10.6V9.132h1.13V7.462Zm4.792,6.329,1.4-4.659H-.1l-2.729,7.909a2.218,2.218,0,0,1-2.133,1.733,2.75,2.75,0,0,1-.743-.115v-1.2l.292.019a1.5,1.5,0,0,0,.879-.212,1.409,1.409,0,0,0,.467-.714l.222-.59L-6.252,9.132h1.663Zm-70.707,8.967,2.666,7.084,2.66-7.084h2.076V32h-1.6V28.953l.159-4.075L-70.611,32H-71.76l-2.723-7.116.159,4.069V32h-1.6V22.758ZM-60.588,32a2.381,2.381,0,0,1-.178-.641,2.4,2.4,0,0,1-1.8.768,2.423,2.423,0,0,1-1.688-.59,1.889,1.889,0,0,1-.654-1.46,1.95,1.95,0,0,1,.816-1.685,3.953,3.953,0,0,1,2.333-.587h.946v-.451a1.2,1.2,0,0,0-.3-.854,1.183,1.183,0,0,0-.908-.321,1.359,1.359,0,0,0-.863.263.815.815,0,0,0-.336.67h-1.542a1.712,1.712,0,0,1,.375-1.057,2.5,2.5,0,0,1,1.019-.771A3.579,3.579,0,0,1-61.934,25a2.882,2.882,0,0,1,1.923.606,2.162,2.162,0,0,1,.736,1.7v3.1a3.511,3.511,0,0,0,.26,1.479V32Zm-1.695-1.111a1.755,1.755,0,0,0,.86-.222,1.484,1.484,0,0,0,.606-.6V28.775h-.832a2.274,2.274,0,0,0-1.289.3.966.966,0,0,0-.432.844.9.9,0,0,0,.3.708A1.143,1.143,0,0,0-62.283,30.889Zm6.056-5.757.044.793a2.469,2.469,0,0,1,2-.92q2.146,0,2.184,2.457V32h-1.542V27.55a1.414,1.414,0,0,0-.282-.968,1.188,1.188,0,0,0-.924-.314,1.486,1.486,0,0,0-1.39.844V32h-1.542V25.132Zm9.9,6.868a2.381,2.381,0,0,1-.178-.641,2.4,2.4,0,0,1-1.8.768,2.423,2.423,0,0,1-1.688-.59,1.889,1.889,0,0,1-.654-1.46,1.95,1.95,0,0,1,.816-1.685A3.953,3.953,0,0,1-47.5,27.8h.946v-.451a1.2,1.2,0,0,0-.3-.854,1.183,1.183,0,0,0-.908-.321,1.359,1.359,0,0,0-.863.263.815.815,0,0,0-.336.67H-50.5a1.712,1.712,0,0,1,.375-1.057,2.5,2.5,0,0,1,1.019-.771A3.579,3.579,0,0,1-47.671,25a2.882,2.882,0,0,1,1.923.606,2.162,2.162,0,0,1,.736,1.7v3.1a3.511,3.511,0,0,0,.26,1.479V32Zm-1.695-1.111a1.755,1.755,0,0,0,.86-.222,1.484,1.484,0,0,0,.606-.6V28.775h-.832a2.274,2.274,0,0,0-1.289.3.966.966,0,0,0-.432.844.9.9,0,0,0,.3.708A1.143,1.143,0,0,0-48.02,30.889Zm4.354-2.374a4.017,4.017,0,0,1,.752-2.555,2.414,2.414,0,0,1,2-.955,2.262,2.262,0,0,1,1.847.819l.07-.692h1.39v6.659a2.768,2.768,0,0,1-.841,2.133,3.2,3.2,0,0,1-2.269.781A3.658,3.658,0,0,1-42.2,34.39a2.622,2.622,0,0,1-1.095-.822l.73-.927a2.2,2.2,0,0,0,1.752.844A1.7,1.7,0,0,0-39.6,33.07a1.593,1.593,0,0,0,.444-1.222v-.463a2.271,2.271,0,0,1-1.777.743,2.408,2.408,0,0,1-1.971-.958A4.147,4.147,0,0,1-43.666,28.515Zm1.536.133a2.765,2.765,0,0,0,.422,1.628,1.357,1.357,0,0,0,1.171.594,1.484,1.484,0,0,0,1.384-.8V27.049a1.463,1.463,0,0,0-1.371-.781,1.363,1.363,0,0,0-1.184.6A3.1,3.1,0,0,0-42.129,28.648ZM-33,32.127a3.191,3.191,0,0,1-2.377-.924,3.35,3.35,0,0,1-.911-2.46v-.19a4.121,4.121,0,0,1,.4-1.838,3.02,3.02,0,0,1,1.114-1.26,2.945,2.945,0,0,1,1.6-.451,2.7,2.7,0,0,1,2.168.9,3.785,3.785,0,0,1,.765,2.533v.622h-4.488a2.063,2.063,0,0,0,.568,1.346,1.706,1.706,0,0,0,1.254.5,2.089,2.089,0,0,0,1.727-.857l.832.793a2.777,2.777,0,0,1-1.1.955A3.448,3.448,0,0,1-33,32.127Zm-.184-5.884a1.3,1.3,0,0,0-1.025.444,2.3,2.3,0,0,0-.5,1.238h2.939v-.114a1.875,1.875,0,0,0-.413-1.171A1.289,1.289,0,0,0-33.186,26.243Zm5.586-1.111.044.717A2.471,2.471,0,0,1-25.575,25a1.9,1.9,0,0,1,1.885,1.054A2.436,2.436,0,0,1-21.582,25a2.141,2.141,0,0,1,1.692.628,2.767,2.767,0,0,1,.568,1.854V32h-1.542V27.531a1.366,1.366,0,0,0-.286-.958,1.25,1.25,0,0,0-.946-.3,1.284,1.284,0,0,0-.86.282,1.49,1.49,0,0,0-.467.74l.006,4.71h-1.542V27.48A1.1,1.1,0,0,0-26.2,26.268a1.358,1.358,0,0,0-1.314.755V32h-1.542V25.132Zm12.886,7a3.191,3.191,0,0,1-2.377-.924A3.35,3.35,0,0,1-18,28.744v-.19a4.121,4.121,0,0,1,.4-1.838,3.02,3.02,0,0,1,1.114-1.26,2.945,2.945,0,0,1,1.6-.451,2.7,2.7,0,0,1,2.168.9,3.785,3.785,0,0,1,.765,2.533v.622h-4.488a2.063,2.063,0,0,0,.568,1.346,1.706,1.706,0,0,0,1.254.5,2.089,2.089,0,0,0,1.727-.857l.832.793a2.777,2.777,0,0,1-1.1.955A3.448,3.448,0,0,1-14.714,32.127Zm-.184-5.884a1.3,1.3,0,0,0-1.025.444,2.3,2.3,0,0,0-.5,1.238h2.939v-.114a1.875,1.875,0,0,0-.413-1.171A1.289,1.289,0,0,0-14.9,26.243Zm5.567-1.111.044.793a2.469,2.469,0,0,1,2-.92q2.146,0,2.184,2.457V32H-6.646V27.55a1.414,1.414,0,0,0-.282-.968,1.188,1.188,0,0,0-.924-.314,1.486,1.486,0,0,0-1.39.844V32h-1.542V25.132ZM-1.6,23.462v1.669H-.387v1.143H-1.6v3.834a.844.844,0,0,0,.156.568.721.721,0,0,0,.555.175,2.376,2.376,0,0,0,.54-.063v1.193a3.8,3.8,0,0,1-1.016.146q-1.777,0-1.777-1.961V26.274h-1.13V25.132h1.13V23.462Z" transform="translate(323.593 591.845)" fill="#12263f"/>
      <path id="Trazado_109826" data-name="Trazado 109826" d="M-15.977-2.38a1.116,1.116,0,0,0-.428-.939,5.155,5.155,0,0,0-1.546-.667,7.464,7.464,0,0,1-1.777-.749A2.372,2.372,0,0,1-20.992-6.8a2.252,2.252,0,0,1,.911-1.841,3.687,3.687,0,0,1,2.365-.724A3.994,3.994,0,0,1-16-9.014,2.823,2.823,0,0,1-14.809-8a2.6,2.6,0,0,1,.432,1.457h-1.6a1.43,1.43,0,0,0-.454-1.124,1.883,1.883,0,0,0-1.3-.406,1.962,1.962,0,0,0-1.222.335,1.114,1.114,0,0,0-.435.936,1.008,1.008,0,0,0,.47.844,5.423,5.423,0,0,0,1.549.657,7.093,7.093,0,0,1,1.733.729,2.756,2.756,0,0,1,.958.939,2.447,2.447,0,0,1,.3,1.241,2.2,2.2,0,0,1-.885,1.838,3.841,3.841,0,0,1-2.4.682A4.515,4.515,0,0,1-19.5-.244,3.1,3.1,0,0,1-20.811-1.27a2.555,2.555,0,0,1-.467-1.523h1.606a1.5,1.5,0,0,0,.521,1.219,2.279,2.279,0,0,0,1.492.432,1.98,1.98,0,0,0,1.26-.34A1.1,1.1,0,0,0-15.977-2.38Zm5.269.171,1.4-4.659h1.644L-10.4,1.041A2.218,2.218,0,0,1-12.53,2.774a2.75,2.75,0,0,1-.743-.115V1.46l.292.019a1.5,1.5,0,0,0,.879-.212,1.409,1.409,0,0,0,.467-.714l.222-.59-2.412-6.831h1.663Zm7.776.343a.7.7,0,0,0-.34-.628A3.612,3.612,0,0,0-4.4-2.875a5.792,5.792,0,0,1-1.314-.419A1.754,1.754,0,0,1-6.868-4.913,1.828,1.828,0,0,1-6.119-6.4a2.961,2.961,0,0,1,1.9-.6,3.081,3.081,0,0,1,1.99.609,1.934,1.934,0,0,1,.759,1.581H-3.009a.951.951,0,0,0-.33-.74,1.265,1.265,0,0,0-.876-.3,1.367,1.367,0,0,0-.828.235.74.74,0,0,0-.321.628.625.625,0,0,0,.3.552,4.1,4.1,0,0,0,1.206.4,5.709,5.709,0,0,1,1.425.476,2.018,2.018,0,0,1,.768.663,1.692,1.692,0,0,1,.251.939,1.789,1.789,0,0,1-.768,1.5A3.275,3.275,0,0,1-4.2.127a3.551,3.551,0,0,1-1.5-.3,2.476,2.476,0,0,1-1.028-.838A1.983,1.983,0,0,1-7.1-2.165h1.5a1.087,1.087,0,0,0,.413.841,1.6,1.6,0,0,0,1.009.3A1.56,1.56,0,0,0-3.25-1.26.717.717,0,0,0-2.933-1.866ZM1.86-8.538v1.669H3.072v1.143H1.86v3.834a.844.844,0,0,0,.156.568.721.721,0,0,0,.555.175,2.376,2.376,0,0,0,.54-.063V-.019A3.8,3.8,0,0,1,2.095.127Q.317.127.317-1.834V-5.726H-.812V-6.868H.317V-8.538ZM7.274.127A3.191,3.191,0,0,1,4.9-.8a3.35,3.35,0,0,1-.911-2.46v-.19a4.121,4.121,0,0,1,.4-1.838A3.02,3.02,0,0,1,5.5-6.544,2.945,2.945,0,0,1,7.1-7a2.7,2.7,0,0,1,2.168.9,3.785,3.785,0,0,1,.765,2.533v.622H5.542A2.063,2.063,0,0,0,6.11-1.6a1.706,1.706,0,0,0,1.254.5A2.089,2.089,0,0,0,9.09-1.961l.832.793a2.777,2.777,0,0,1-1.1.955A3.448,3.448,0,0,1,7.274.127ZM7.09-5.757a1.3,1.3,0,0,0-1.025.444,2.3,2.3,0,0,0-.5,1.238H8.506v-.114a1.875,1.875,0,0,0-.413-1.171A1.289,1.289,0,0,0,7.09-5.757Zm5.586-1.111.044.717A2.471,2.471,0,0,1,14.7-7a1.9,1.9,0,0,1,1.885,1.054A2.436,2.436,0,0,1,18.694-7a2.141,2.141,0,0,1,1.692.628,2.767,2.767,0,0,1,.568,1.854V0H19.411V-4.469a1.366,1.366,0,0,0-.286-.958,1.25,1.25,0,0,0-.946-.3,1.284,1.284,0,0,0-.86.282,1.49,1.49,0,0,0-.467.74L16.859,0H15.317V-4.52a1.1,1.1,0,0,0-1.238-1.212,1.358,1.358,0,0,0-1.314.755V0H11.223V-6.868ZM-37.356,16V6.758h2.729a4.281,4.281,0,0,1,2.174.546,3.722,3.722,0,0,1,1.469,1.549,4.916,4.916,0,0,1,.521,2.3v.463a4.9,4.9,0,0,1-.524,2.311,3.677,3.677,0,0,1-1.492,1.536A4.48,4.48,0,0,1-34.7,16Zm1.606-7.947v6.652H-34.7a2.414,2.414,0,0,0,1.939-.789,3.431,3.431,0,0,0,.689-2.265v-.513a3.521,3.521,0,0,0-.654-2.293,2.32,2.32,0,0,0-1.9-.792Zm9.763,8.074a3.191,3.191,0,0,1-2.377-.924,3.35,3.35,0,0,1-.911-2.46v-.19a4.121,4.121,0,0,1,.4-1.838,3.02,3.02,0,0,1,1.114-1.26A2.945,2.945,0,0,1-26.165,9,2.7,2.7,0,0,1-24,9.9a3.785,3.785,0,0,1,.765,2.533v.622H-27.72a2.063,2.063,0,0,0,.568,1.346,1.706,1.706,0,0,0,1.254.5,2.089,2.089,0,0,0,1.727-.857l.832.793a2.777,2.777,0,0,1-1.1.955A3.448,3.448,0,0,1-25.987,16.127Zm-.184-5.884a1.3,1.3,0,0,0-1.025.444,2.3,2.3,0,0,0-.5,1.238h2.939v-.114a1.875,1.875,0,0,0-.413-1.171A1.289,1.289,0,0,0-26.171,10.243Zm6.475,3.8,1.454-4.913h1.593L-19.03,16H-20.37l-2.4-6.868h1.6Zm6.951,2.082a3.191,3.191,0,0,1-2.377-.924,3.35,3.35,0,0,1-.911-2.46v-.19a4.121,4.121,0,0,1,.4-1.838,3.02,3.02,0,0,1,1.114-1.26A2.945,2.945,0,0,1-12.924,9a2.7,2.7,0,0,1,2.168.9,3.785,3.785,0,0,1,.765,2.533v.622h-4.488a2.063,2.063,0,0,0,.568,1.346,1.706,1.706,0,0,0,1.254.5,2.089,2.089,0,0,0,1.727-.857l.832.793a2.777,2.777,0,0,1-1.1.955A3.448,3.448,0,0,1-12.746,16.127Zm-.184-5.884a1.3,1.3,0,0,0-1.025.444,2.3,2.3,0,0,0-.5,1.238h2.939v-.114a1.875,1.875,0,0,0-.413-1.171A1.289,1.289,0,0,0-12.93,10.243ZM-7.154,16H-8.7V6.25h1.542Zm1.39-3.5a4.05,4.05,0,0,1,.4-1.819A2.921,2.921,0,0,1-4.24,9.44,3.166,3.166,0,0,1-2.577,9a3,3,0,0,1,2.257.9,3.52,3.52,0,0,1,.936,2.374l.006.362a4.086,4.086,0,0,1-.39,1.815A2.886,2.886,0,0,1-.885,15.689a3.189,3.189,0,0,1-1.679.438,2.979,2.979,0,0,1-2.326-.968,3.707,3.707,0,0,1-.873-2.58Zm1.542.133a2.767,2.767,0,0,0,.438,1.66,1.424,1.424,0,0,0,1.219.6,1.408,1.408,0,0,0,1.216-.609A3.057,3.057,0,0,0-.914,12.5a2.732,2.732,0,0,0-.448-1.65,1.429,1.429,0,0,0-1.216-.609,1.416,1.416,0,0,0-1.2.6A3,3,0,0,0-4.221,12.636Zm12.162,0a4.089,4.089,0,0,1-.724,2.542,2.318,2.318,0,0,1-1.942.949,2.333,2.333,0,0,1-1.809-.743v3.256H1.923V9.132H3.345l.063.7A2.266,2.266,0,0,1,5.256,9a2.341,2.341,0,0,1,1.971.936,4.2,4.2,0,0,1,.714,2.6ZM6.4,12.5A2.865,2.865,0,0,0,6,10.871a1.331,1.331,0,0,0-1.171-.6,1.419,1.419,0,0,0-1.358.781V14.1a1.433,1.433,0,0,0,1.371.8A1.329,1.329,0,0,0,5.989,14.3,3.153,3.153,0,0,0,6.4,12.5ZM10.7,9.132l.044.717A2.471,2.471,0,0,1,12.721,9a1.9,1.9,0,0,1,1.885,1.054A2.436,2.436,0,0,1,16.713,9a2.141,2.141,0,0,1,1.692.628,2.767,2.767,0,0,1,.568,1.854V16H17.431V11.531a1.366,1.366,0,0,0-.286-.958,1.25,1.25,0,0,0-.946-.3,1.284,1.284,0,0,0-.86.282,1.49,1.49,0,0,0-.467.74L14.879,16H13.336V11.48A1.1,1.1,0,0,0,12.1,10.268a1.358,1.358,0,0,0-1.314.755V16H9.242V9.132Zm12.886,7A3.191,3.191,0,0,1,21.2,15.2a3.35,3.35,0,0,1-.911-2.46v-.19a4.121,4.121,0,0,1,.4-1.838A3.02,3.02,0,0,1,21.8,9.456,2.945,2.945,0,0,1,23.4,9a2.7,2.7,0,0,1,2.168.9,3.785,3.785,0,0,1,.765,2.533v.622H21.849a2.063,2.063,0,0,0,.568,1.346,1.706,1.706,0,0,0,1.254.5,2.089,2.089,0,0,0,1.727-.857l.832.793a2.777,2.777,0,0,1-1.1.955A3.448,3.448,0,0,1,23.582,16.127ZM23.4,10.243a1.3,1.3,0,0,0-1.025.444,2.3,2.3,0,0,0-.5,1.238h2.939v-.114a1.875,1.875,0,0,0-.413-1.171A1.289,1.289,0,0,0,23.4,10.243Zm5.567-1.111.044.793a2.469,2.469,0,0,1,2-.92q2.146,0,2.184,2.457V16H31.649V11.55a1.414,1.414,0,0,0-.282-.968,1.188,1.188,0,0,0-.924-.314,1.486,1.486,0,0,0-1.39.844V16H27.511V9.132ZM36.7,7.462V9.132h1.212v1.143H36.7v3.834a.844.844,0,0,0,.156.568.721.721,0,0,0,.555.175,2.376,2.376,0,0,0,.54-.063v1.193a3.8,3.8,0,0,1-1.016.146q-1.777,0-1.777-1.961V10.274h-1.13V9.132h1.13V7.462ZM-43,29.505a2.115,2.115,0,0,1,.349-1.177,5.481,5.481,0,0,1,1.377-1.273,5.753,5.753,0,0,1-.752-1.155,2.252,2.252,0,0,1-.213-.92,2.264,2.264,0,0,1,.66-1.717,2.464,2.464,0,0,1,1.777-.632,2.345,2.345,0,0,1,1.654.594,1.918,1.918,0,0,1,.644,1.469,2.025,2.025,0,0,1-.292,1.063,3.46,3.46,0,0,1-.958.968l-.628.457,1.784,2.107a3.686,3.686,0,0,0,.387-1.695h1.339a4.617,4.617,0,0,1-.8,2.8L-35.309,32H-37.1l-.521-.616a3.824,3.824,0,0,1-2.361.743,3.19,3.19,0,0,1-2.193-.727A2.41,2.41,0,0,1-43,29.505Zm3.06,1.39a2.355,2.355,0,0,0,1.46-.521l-2.019-2.38-.2.14a1.649,1.649,0,0,0-.762,1.32,1.385,1.385,0,0,0,.413,1.041A1.519,1.519,0,0,0-39.936,30.9Zm-.851-5.954a2.361,2.361,0,0,0,.654,1.339l.7-.482.2-.159a1.142,1.142,0,0,0,.394-.9.82.82,0,0,0-.273-.619.969.969,0,0,0-.692-.257.9.9,0,0,0-.717.3A1.124,1.124,0,0,0-40.787,24.941Zm11.813-2.184,2.666,7.084,2.66-7.084h2.076V32h-1.6V28.953l.159-4.075L-25.743,32h-1.149l-2.723-7.116.159,4.069V32h-1.6V22.758ZM-15.72,32a2.381,2.381,0,0,1-.178-.641,2.4,2.4,0,0,1-1.8.768,2.423,2.423,0,0,1-1.688-.59,1.889,1.889,0,0,1-.654-1.46,1.95,1.95,0,0,1,.816-1.685,3.953,3.953,0,0,1,2.333-.587h.946v-.451a1.2,1.2,0,0,0-.3-.854,1.183,1.183,0,0,0-.908-.321,1.359,1.359,0,0,0-.863.263.815.815,0,0,0-.336.67H-19.9a1.712,1.712,0,0,1,.375-1.057,2.5,2.5,0,0,1,1.019-.771A3.579,3.579,0,0,1-17.066,25a2.882,2.882,0,0,1,1.923.606,2.162,2.162,0,0,1,.736,1.7v3.1a3.511,3.511,0,0,0,.26,1.479V32Zm-1.695-1.111a1.755,1.755,0,0,0,.86-.222,1.484,1.484,0,0,0,.606-.6V28.775h-.832a2.274,2.274,0,0,0-1.289.3.966.966,0,0,0-.432.844.9.9,0,0,0,.3.708A1.143,1.143,0,0,0-17.415,30.889ZM-11.15,32h-1.542V25.132h1.542Zm-1.638-8.658a.828.828,0,0,1,.225-.595.847.847,0,0,1,.644-.237.858.858,0,0,1,.647.237.822.822,0,0,1,.229.595.8.8,0,0,1-.229.585.865.865,0,0,1-.647.233.854.854,0,0,1-.644-.233A.809.809,0,0,1-12.787,23.342Zm4.748,1.79.044.793A2.469,2.469,0,0,1-6,25q2.146,0,2.184,2.457V32H-5.354V27.55a1.414,1.414,0,0,0-.282-.968,1.188,1.188,0,0,0-.924-.314,1.486,1.486,0,0,0-1.39.844V32H-9.493V25.132Zm7.731-1.669v1.669H.9v1.143H-.308v3.834a.844.844,0,0,0,.156.568.721.721,0,0,0,.555.175,2.376,2.376,0,0,0,.54-.063v1.193a3.8,3.8,0,0,1-1.016.146q-1.777,0-1.777-1.961V26.274H-2.98V25.132h1.13V23.462Zm5.415,8.665A3.191,3.191,0,0,1,2.729,31.2a3.35,3.35,0,0,1-.911-2.46v-.19a4.121,4.121,0,0,1,.4-1.838,3.02,3.02,0,0,1,1.114-1.26A2.945,2.945,0,0,1,4.929,25a2.7,2.7,0,0,1,2.168.9,3.785,3.785,0,0,1,.765,2.533v.622H3.374A2.063,2.063,0,0,0,3.942,30.4a1.706,1.706,0,0,0,1.254.5,2.089,2.089,0,0,0,1.727-.857l.832.793a2.777,2.777,0,0,1-1.1.955A3.448,3.448,0,0,1,5.107,32.127Zm-.184-5.884a1.3,1.3,0,0,0-1.025.444,2.3,2.3,0,0,0-.5,1.238H6.338v-.114a1.875,1.875,0,0,0-.413-1.171A1.289,1.289,0,0,0,4.923,26.243Zm5.567-1.111.044.793a2.469,2.469,0,0,1,2-.92q2.146,0,2.184,2.457V32H13.175V27.55a1.414,1.414,0,0,0-.282-.968,1.188,1.188,0,0,0-.924-.314,1.486,1.486,0,0,0-1.39.844V32H9.036V25.132ZM20.392,32a2.38,2.38,0,0,1-.178-.641,2.595,2.595,0,0,1-3.491.178,1.889,1.889,0,0,1-.654-1.46,1.95,1.95,0,0,1,.816-1.685,3.953,3.953,0,0,1,2.333-.587h.946v-.451a1.2,1.2,0,0,0-.3-.854,1.183,1.183,0,0,0-.908-.321,1.359,1.359,0,0,0-.863.263.815.815,0,0,0-.336.67H16.215a1.712,1.712,0,0,1,.375-1.057,2.5,2.5,0,0,1,1.019-.771A3.579,3.579,0,0,1,19.046,25a2.882,2.882,0,0,1,1.923.606,2.162,2.162,0,0,1,.736,1.7v3.1a3.511,3.511,0,0,0,.26,1.479V32ZM18.7,30.889a1.755,1.755,0,0,0,.86-.222,1.484,1.484,0,0,0,.606-.6V28.775h-.832a2.274,2.274,0,0,0-1.289.3.966.966,0,0,0-.432.844.9.9,0,0,0,.3.708A1.143,1.143,0,0,0,18.7,30.889Zm6.056-5.757.044.793a2.469,2.469,0,0,1,2-.92q2.146,0,2.184,2.457V32H27.438V27.55a1.414,1.414,0,0,0-.282-.968,1.188,1.188,0,0,0-.924-.314,1.486,1.486,0,0,0-1.39.844V32H23.3V25.132Zm8.62,5.764a1.4,1.4,0,0,0,.958-.336,1.149,1.149,0,0,0,.406-.832h1.454a2.266,2.266,0,0,1-.4,1.2,2.623,2.623,0,0,1-1.016.879,3.027,3.027,0,0,1-1.384.324,2.928,2.928,0,0,1-2.285-.933,3.7,3.7,0,0,1-.844-2.577v-.159a3.639,3.639,0,0,1,.838-2.51A2.9,2.9,0,0,1,33.385,25a2.822,2.822,0,0,1,2,.714,2.558,2.558,0,0,1,.809,1.876H34.738a1.412,1.412,0,0,0-.4-.971,1.3,1.3,0,0,0-.962-.381,1.357,1.357,0,0,0-1.155.543,2.769,2.769,0,0,0-.413,1.647v.248a2.815,2.815,0,0,0,.4,1.666A1.356,1.356,0,0,0,33.373,30.9Zm7.008,1.231A3.191,3.191,0,0,1,38,31.2a3.35,3.35,0,0,1-.911-2.46v-.19a4.121,4.121,0,0,1,.4-1.838,3.02,3.02,0,0,1,1.114-1.26A2.945,2.945,0,0,1,40.2,25a2.7,2.7,0,0,1,2.168.9,3.785,3.785,0,0,1,.765,2.533v.622H38.648a2.063,2.063,0,0,0,.568,1.346,1.706,1.706,0,0,0,1.254.5,2.089,2.089,0,0,0,1.727-.857l.832.793a2.777,2.777,0,0,1-1.1.955A3.448,3.448,0,0,1,40.381,32.127ZM40.2,26.243a1.3,1.3,0,0,0-1.025.444,2.3,2.3,0,0,0-.5,1.238h2.939v-.114a1.875,1.875,0,0,0-.413-1.171A1.289,1.289,0,0,0,40.2,26.243Z" transform="translate(291.033 745.916)" fill="#12263f"/>
      <path id="Trazado_109825" data-name="Trazado 109825" d="M-15.215-2.152H-18.8L-19.544,0h-1.669l3.491-9.242h1.441L-12.784,0H-14.46Zm-3.129-1.295h2.679l-1.339-3.834ZM-9.064-1.1a1.4,1.4,0,0,0,.958-.336A1.149,1.149,0,0,0-7.7-2.272h1.454a2.266,2.266,0,0,1-.4,1.2A2.623,2.623,0,0,1-7.662-.2,3.027,3.027,0,0,1-9.045.127a2.928,2.928,0,0,1-2.285-.933,3.7,3.7,0,0,1-.844-2.577v-.159a3.639,3.639,0,0,1,.838-2.51A2.9,2.9,0,0,1-9.052-7a2.822,2.822,0,0,1,2,.714,2.558,2.558,0,0,1,.809,1.876H-7.7a1.412,1.412,0,0,0-.4-.971,1.3,1.3,0,0,0-.962-.381,1.357,1.357,0,0,0-1.155.543,2.769,2.769,0,0,0-.413,1.647v.248a2.815,2.815,0,0,0,.4,1.666A1.356,1.356,0,0,0-9.064-1.1Zm6.8,0A1.4,1.4,0,0,0-1.3-1.441,1.149,1.149,0,0,0-.9-2.272H.559a2.266,2.266,0,0,1-.4,1.2A2.623,2.623,0,0,1-.857-.2,3.027,3.027,0,0,1-2.241.127,2.928,2.928,0,0,1-4.526-.806,3.7,3.7,0,0,1-5.37-3.383v-.159a3.639,3.639,0,0,1,.838-2.51A2.9,2.9,0,0,1-2.247-7a2.822,2.822,0,0,1,2,.714A2.558,2.558,0,0,1,.559-4.405H-.9a1.412,1.412,0,0,0-.4-.971,1.3,1.3,0,0,0-.962-.381,1.357,1.357,0,0,0-1.155.543,2.769,2.769,0,0,0-.413,1.647v.248a2.815,2.815,0,0,0,.4,1.666A1.356,1.356,0,0,0-2.26-1.1ZM4.748.127A3.191,3.191,0,0,1,2.371-.8a3.35,3.35,0,0,1-.911-2.46v-.19a4.121,4.121,0,0,1,.4-1.838,3.02,3.02,0,0,1,1.114-1.26A2.945,2.945,0,0,1,4.57-7a2.7,2.7,0,0,1,2.168.9A3.785,3.785,0,0,1,7.5-3.567v.622H3.015A2.063,2.063,0,0,0,3.583-1.6a1.706,1.706,0,0,0,1.254.5,2.089,2.089,0,0,0,1.727-.857l.832.793a2.777,2.777,0,0,1-1.1.955A3.448,3.448,0,0,1,4.748.127ZM4.564-5.757a1.3,1.3,0,0,0-1.025.444,2.3,2.3,0,0,0-.5,1.238H5.979v-.114a1.875,1.875,0,0,0-.413-1.171A1.289,1.289,0,0,0,4.564-5.757Zm7.985,3.891a.7.7,0,0,0-.34-.628,3.612,3.612,0,0,0-1.127-.381,5.792,5.792,0,0,1-1.314-.419A1.754,1.754,0,0,1,8.614-4.913,1.828,1.828,0,0,1,9.363-6.4a2.961,2.961,0,0,1,1.9-.6,3.081,3.081,0,0,1,1.99.609,1.934,1.934,0,0,1,.759,1.581H12.473a.951.951,0,0,0-.33-.74,1.265,1.265,0,0,0-.876-.3,1.367,1.367,0,0,0-.828.235.74.74,0,0,0-.321.628.625.625,0,0,0,.3.552,4.1,4.1,0,0,0,1.206.4,5.709,5.709,0,0,1,1.425.476,2.018,2.018,0,0,1,.768.663,1.692,1.692,0,0,1,.251.939,1.789,1.789,0,0,1-.768,1.5,3.275,3.275,0,0,1-2.012.574,3.551,3.551,0,0,1-1.5-.3,2.476,2.476,0,0,1-1.028-.838,1.983,1.983,0,0,1-.368-1.149h1.5a1.087,1.087,0,0,0,.413.841,1.6,1.6,0,0,0,1.009.3,1.56,1.56,0,0,0,.927-.232A.717.717,0,0,0,12.549-1.866Zm6.709,0a.7.7,0,0,0-.34-.628,3.612,3.612,0,0,0-1.127-.381,5.792,5.792,0,0,1-1.314-.419,1.754,1.754,0,0,1-1.155-1.619A1.828,1.828,0,0,1,16.072-6.4a2.961,2.961,0,0,1,1.9-.6,3.081,3.081,0,0,1,1.99.609,1.934,1.934,0,0,1,.759,1.581H19.183a.951.951,0,0,0-.33-.74,1.265,1.265,0,0,0-.876-.3,1.367,1.367,0,0,0-.828.235.74.74,0,0,0-.321.628.625.625,0,0,0,.3.552,4.1,4.1,0,0,0,1.206.4,5.709,5.709,0,0,1,1.425.476,2.018,2.018,0,0,1,.768.663,1.692,1.692,0,0,1,.251.939,1.789,1.789,0,0,1-.768,1.5A3.275,3.275,0,0,1,18,.127a3.551,3.551,0,0,1-1.5-.3,2.476,2.476,0,0,1-1.028-.838,1.983,1.983,0,0,1-.368-1.149h1.5a1.087,1.087,0,0,0,.413.841,1.6,1.6,0,0,0,1.009.3,1.56,1.56,0,0,0,.927-.232A.717.717,0,0,0,19.259-1.866ZM-13.26,12.991A3.337,3.337,0,0,1-14.352,15.3a3.722,3.722,0,0,1-2.533.828A3.6,3.6,0,0,1-18.83,15.6a3.437,3.437,0,0,1-1.3-1.489,5.372,5.372,0,0,1-.476-2.241v-.863a5.411,5.411,0,0,1,.463-2.3,3.492,3.492,0,0,1,1.33-1.536,3.709,3.709,0,0,1,2-.54,3.572,3.572,0,0,1,2.463.828A3.461,3.461,0,0,1-13.26,9.8h-1.6a2.283,2.283,0,0,0-.581-1.438,1.92,1.92,0,0,0-1.368-.441,1.875,1.875,0,0,0-1.609.766,3.826,3.826,0,0,0-.574,2.246v.82a4.059,4.059,0,0,0,.536,2.287,1.78,1.78,0,0,0,1.571.788,2.076,2.076,0,0,0,1.422-.425,2.218,2.218,0,0,0,.6-1.416Zm1-.489a4.05,4.05,0,0,1,.4-1.819A2.921,2.921,0,0,1-10.74,9.44,3.166,3.166,0,0,1-9.077,9a3,3,0,0,1,2.257.9,3.52,3.52,0,0,1,.936,2.374l.006.362a4.086,4.086,0,0,1-.39,1.815,2.886,2.886,0,0,1-1.117,1.238,3.189,3.189,0,0,1-1.679.438,2.979,2.979,0,0,1-2.326-.968,3.707,3.707,0,0,1-.873-2.58Zm1.542.133a2.767,2.767,0,0,0,.438,1.66,1.424,1.424,0,0,0,1.219.6,1.408,1.408,0,0,0,1.216-.609A3.057,3.057,0,0,0-7.414,12.5a2.732,2.732,0,0,0-.448-1.65,1.429,1.429,0,0,0-1.216-.609,1.416,1.416,0,0,0-1.2.6A3,3,0,0,0-10.721,12.636Zm7.579-3.5.044.793A2.469,2.469,0,0,1-1.1,9q2.146,0,2.184,2.457V16H-.457V11.55a1.414,1.414,0,0,0-.282-.968,1.188,1.188,0,0,0-.924-.314,1.486,1.486,0,0,0-1.39.844V16H-4.6V9.132ZM4.589,7.462V9.132H5.8v1.143H4.589v3.834a.844.844,0,0,0,.156.568.721.721,0,0,0,.555.175,2.376,2.376,0,0,0,.54-.063v1.193a3.8,3.8,0,0,1-1.016.146q-1.777,0-1.777-1.961V10.274H1.917V9.132h1.13V7.462Zm5.986,3.079a3.817,3.817,0,0,0-.628-.051,1.415,1.415,0,0,0-1.428.813V16H6.976V9.132H8.449l.038.768A1.738,1.738,0,0,1,10.036,9a1.444,1.444,0,0,1,.546.089Zm.457,1.961a4.05,4.05,0,0,1,.4-1.819A2.921,2.921,0,0,1,12.556,9.44,3.166,3.166,0,0,1,14.219,9a3,3,0,0,1,2.257.9,3.52,3.52,0,0,1,.936,2.374l.006.362a4.086,4.086,0,0,1-.39,1.815,2.886,2.886,0,0,1-1.117,1.238,3.189,3.189,0,0,1-1.679.438,2.979,2.979,0,0,1-2.326-.968,3.707,3.707,0,0,1-.873-2.58Zm1.542.133a2.767,2.767,0,0,0,.438,1.66,1.424,1.424,0,0,0,1.219.6,1.408,1.408,0,0,0,1.216-.609,3.057,3.057,0,0,0,.435-1.784,2.732,2.732,0,0,0-.448-1.65,1.508,1.508,0,0,0-2.415-.01A3,3,0,0,0,12.575,12.636ZM20.363,16H18.821V6.25h1.542Z" transform="translate(384.291 844.543)" fill="#12263f"/>
      <path id="Trazado_109824" data-name="Trazado 109824" d="M-41.561-3.009A3.337,3.337,0,0,1-42.653-.7a3.722,3.722,0,0,1-2.533.828A3.6,3.6,0,0,1-47.131-.4a3.437,3.437,0,0,1-1.3-1.489,5.372,5.372,0,0,1-.476-2.241v-.863a5.411,5.411,0,0,1,.463-2.3,3.492,3.492,0,0,1,1.33-1.536,3.709,3.709,0,0,1,2-.54,3.572,3.572,0,0,1,2.463.828A3.461,3.461,0,0,1-41.561-6.2h-1.6a2.283,2.283,0,0,0-.581-1.438,1.92,1.92,0,0,0-1.368-.441,1.875,1.875,0,0,0-1.609.766,3.826,3.826,0,0,0-.574,2.246v.82a4.059,4.059,0,0,0,.536,2.287,1.78,1.78,0,0,0,1.571.788,2.076,2.076,0,0,0,1.422-.425,2.218,2.218,0,0,0,.6-1.416Zm1-.489a4.05,4.05,0,0,1,.4-1.819A2.921,2.921,0,0,1-39.041-6.56,3.166,3.166,0,0,1-37.378-7a3,3,0,0,1,2.257.9,3.52,3.52,0,0,1,.936,2.374l.006.362a4.086,4.086,0,0,1-.39,1.815A2.886,2.886,0,0,1-35.687-.311a3.189,3.189,0,0,1-1.679.438,2.979,2.979,0,0,1-2.326-.968,3.707,3.707,0,0,1-.873-2.58Zm1.542.133a2.767,2.767,0,0,0,.438,1.66,1.424,1.424,0,0,0,1.219.6,1.408,1.408,0,0,0,1.216-.609A3.057,3.057,0,0,0-35.715-3.5a2.732,2.732,0,0,0-.448-1.65,1.429,1.429,0,0,0-1.216-.609,1.416,1.416,0,0,0-1.2.6A3,3,0,0,0-39.022-3.364Zm7.6-3.5.044.717A2.471,2.471,0,0,1-29.4-7a1.9,1.9,0,0,1,1.885,1.054A2.436,2.436,0,0,1-25.406-7a2.141,2.141,0,0,1,1.692.628,2.767,2.767,0,0,1,.568,1.854V0h-1.542V-4.469a1.366,1.366,0,0,0-.286-.958,1.25,1.25,0,0,0-.946-.3,1.284,1.284,0,0,0-.86.282,1.49,1.49,0,0,0-.467.74L-27.241,0h-1.542V-4.52a1.1,1.1,0,0,0-1.238-1.212,1.358,1.358,0,0,0-1.314.755V0h-1.542V-6.868Zm11.312,0,.044.717A2.471,2.471,0,0,1-18.088-7,1.9,1.9,0,0,1-16.2-5.941,2.436,2.436,0,0,1-14.095-7a2.141,2.141,0,0,1,1.692.628,2.767,2.767,0,0,1,.568,1.854V0h-1.542V-4.469a1.366,1.366,0,0,0-.286-.958,1.25,1.25,0,0,0-.946-.3,1.284,1.284,0,0,0-.86.282,1.49,1.49,0,0,0-.467.74L-15.929,0h-1.542V-4.52A1.1,1.1,0,0,0-18.71-5.732a1.358,1.358,0,0,0-1.314.755V0h-1.542V-6.868Zm14.022,6.2a2.392,2.392,0,0,1-1.93.8A2.132,2.132,0,0,1-9.712-.527a2.781,2.781,0,0,1-.574-1.892v-4.45h1.542v4.431q0,1.308,1.085,1.308a1.524,1.524,0,0,0,1.517-.806V-6.868H-4.6V0H-6.052Zm4.494-6.2.044.793a2.469,2.469,0,0,1,2-.92Q2.593-7,2.631-4.539V0H1.089V-4.45a1.414,1.414,0,0,0-.282-.968,1.188,1.188,0,0,0-.924-.314,1.486,1.486,0,0,0-1.39.844V0H-3.05V-6.868ZM5.843,0H4.3V-6.868H5.843ZM4.205-8.658a.828.828,0,0,1,.225-.595.847.847,0,0,1,.644-.237.858.858,0,0,1,.647.237.822.822,0,0,1,.229.595.8.8,0,0,1-.229.585.865.865,0,0,1-.647.233.854.854,0,0,1-.644-.233A.809.809,0,0,1,4.205-8.658ZM10.344-1.1a1.4,1.4,0,0,0,.958-.336,1.149,1.149,0,0,0,.406-.832h1.454a2.266,2.266,0,0,1-.4,1.2A2.623,2.623,0,0,1,11.746-.2a3.027,3.027,0,0,1-1.384.324A2.928,2.928,0,0,1,8.077-.806a3.7,3.7,0,0,1-.844-2.577v-.159a3.639,3.639,0,0,1,.838-2.51A2.9,2.9,0,0,1,10.356-7a2.822,2.822,0,0,1,2,.714,2.558,2.558,0,0,1,.809,1.876H11.708a1.412,1.412,0,0,0-.4-.971,1.3,1.3,0,0,0-.962-.381,1.357,1.357,0,0,0-1.155.543,2.769,2.769,0,0,0-.413,1.647v.248a2.815,2.815,0,0,0,.4,1.666A1.356,1.356,0,0,0,10.344-1.1ZM18.43,0a2.38,2.38,0,0,1-.178-.641,2.4,2.4,0,0,1-1.8.768,2.423,2.423,0,0,1-1.688-.59,1.889,1.889,0,0,1-.654-1.46,1.95,1.95,0,0,1,.816-1.685A3.953,3.953,0,0,1,17.256-4.2H18.2v-.451a1.2,1.2,0,0,0-.3-.854A1.183,1.183,0,0,0,17-5.821a1.359,1.359,0,0,0-.863.263.815.815,0,0,0-.336.67H14.254a1.712,1.712,0,0,1,.375-1.057,2.5,2.5,0,0,1,1.019-.771A3.579,3.579,0,0,1,17.085-7a2.882,2.882,0,0,1,1.923.606,2.162,2.162,0,0,1,.736,1.7v3.1A3.511,3.511,0,0,0,20-.108V0ZM16.736-1.111a1.755,1.755,0,0,0,.86-.222,1.484,1.484,0,0,0,.606-.6V-3.225H17.37a2.274,2.274,0,0,0-1.289.3.966.966,0,0,0-.432.844.9.9,0,0,0,.3.708A1.143,1.143,0,0,0,16.736-1.111Zm6.557-7.427v1.669h1.212v1.143H23.293v3.834a.844.844,0,0,0,.156.568A.721.721,0,0,0,24-1.149a2.376,2.376,0,0,0,.54-.063V-.019a3.8,3.8,0,0,1-1.016.146q-1.777,0-1.777-1.961V-5.726H20.62V-6.868h1.13V-8.538ZM27.323,0H25.781V-6.868h1.542ZM25.686-8.658a.828.828,0,0,1,.225-.595.847.847,0,0,1,.644-.237.858.858,0,0,1,.647.237.822.822,0,0,1,.229.595.8.8,0,0,1-.229.585.865.865,0,0,1-.647.233.854.854,0,0,1-.644-.233A.809.809,0,0,1,25.686-8.658ZM28.714-3.5a4.05,4.05,0,0,1,.4-1.819A2.921,2.921,0,0,1,30.237-6.56,3.166,3.166,0,0,1,31.9-7a3,3,0,0,1,2.257.9,3.52,3.52,0,0,1,.936,2.374l.006.362a4.086,4.086,0,0,1-.39,1.815A2.886,2.886,0,0,1,33.592-.311a3.189,3.189,0,0,1-1.679.438,2.979,2.979,0,0,1-2.326-.968,3.707,3.707,0,0,1-.873-2.58Zm1.542.133a2.767,2.767,0,0,0,.438,1.66,1.424,1.424,0,0,0,1.219.6,1.408,1.408,0,0,0,1.216-.609A3.057,3.057,0,0,0,33.563-3.5a2.732,2.732,0,0,0-.448-1.65A1.429,1.429,0,0,0,31.9-5.757a1.416,1.416,0,0,0-1.2.6A3,3,0,0,0,30.256-3.364Zm7.579-3.5.044.793a2.469,2.469,0,0,1,2-.92q2.146,0,2.184,2.457V0H40.52V-4.45a1.414,1.414,0,0,0-.282-.968,1.188,1.188,0,0,0-.924-.314,1.486,1.486,0,0,0-1.39.844V0H36.382V-6.868Zm9.648,5a.7.7,0,0,0-.34-.628,3.612,3.612,0,0,0-1.127-.381A5.792,5.792,0,0,1,44.7-3.294a1.754,1.754,0,0,1-1.155-1.619A1.828,1.828,0,0,1,44.3-6.4,2.961,2.961,0,0,1,46.2-7a3.081,3.081,0,0,1,1.99.609,1.934,1.934,0,0,1,.759,1.581H47.407a.951.951,0,0,0-.33-.74,1.265,1.265,0,0,0-.876-.3,1.367,1.367,0,0,0-.828.235.74.74,0,0,0-.321.628.625.625,0,0,0,.3.552,4.1,4.1,0,0,0,1.206.4,5.709,5.709,0,0,1,1.425.476,2.018,2.018,0,0,1,.768.663A1.692,1.692,0,0,1,49-1.949a1.789,1.789,0,0,1-.768,1.5A3.275,3.275,0,0,1,46.22.127a3.551,3.551,0,0,1-1.5-.3,2.476,2.476,0,0,1-1.028-.838,1.983,1.983,0,0,1-.368-1.149h1.5a1.087,1.087,0,0,0,.413.841,1.6,1.6,0,0,0,1.009.3,1.56,1.56,0,0,0,.927-.232A.717.717,0,0,0,47.484-1.866Zm-81.19,15.372a2.115,2.115,0,0,1,.349-1.177,5.481,5.481,0,0,1,1.377-1.273A5.753,5.753,0,0,1-32.732,9.9a2.252,2.252,0,0,1-.213-.92,2.264,2.264,0,0,1,.66-1.717,2.464,2.464,0,0,1,1.777-.632,2.345,2.345,0,0,1,1.654.594,1.918,1.918,0,0,1,.644,1.469A2.025,2.025,0,0,1-28.5,9.757a3.46,3.46,0,0,1-.958.968l-.628.457L-28.3,13.29a3.686,3.686,0,0,0,.387-1.695h1.339a4.617,4.617,0,0,1-.8,2.8L-26.019,16h-1.79l-.521-.616a3.824,3.824,0,0,1-2.361.743,3.19,3.19,0,0,1-2.193-.727A2.41,2.41,0,0,1-33.706,13.505Zm3.06,1.39a2.355,2.355,0,0,0,1.46-.521l-2.019-2.38-.2.14a1.649,1.649,0,0,0-.762,1.32,1.385,1.385,0,0,0,.413,1.041A1.519,1.519,0,0,0-30.646,14.9ZM-31.5,8.941a2.361,2.361,0,0,0,.654,1.339l.7-.482.2-.159a1.142,1.142,0,0,0,.394-.9.82.82,0,0,0-.273-.619.969.969,0,0,0-.692-.257.9.9,0,0,0-.717.3A1.124,1.124,0,0,0-31.5,8.941ZM-14.39,11.62A5.67,5.67,0,0,1-14.86,14,3.552,3.552,0,0,1-16.2,15.578a3.693,3.693,0,0,1-2.009.549,3.7,3.7,0,0,1-2-.549,3.606,3.606,0,0,1-1.358-1.565,5.493,5.493,0,0,1-.486-2.342V11.15a5.622,5.622,0,0,1,.479-2.387A3.6,3.6,0,0,1-20.227,7.18a3.681,3.681,0,0,1,2-.549,3.714,3.714,0,0,1,2,.543,3.556,3.556,0,0,1,1.349,1.562,5.61,5.61,0,0,1,.482,2.371ZM-16,11.138a4.04,4.04,0,0,0-.581-2.355,1.9,1.9,0,0,0-1.647-.819,1.894,1.894,0,0,0-1.628.816,3.962,3.962,0,0,0-.6,2.307v.533a4.009,4.009,0,0,0,.594,2.355,1.911,1.911,0,0,0,1.647.832,1.889,1.889,0,0,0,1.641-.812A4.1,4.1,0,0,0-16,11.62Zm9.071,1.5a4.089,4.089,0,0,1-.724,2.542,2.318,2.318,0,0,1-1.942.949,2.333,2.333,0,0,1-1.809-.743v3.256h-1.542V9.132h1.422l.063.7A2.266,2.266,0,0,1-9.61,9a2.341,2.341,0,0,1,1.971.936,4.2,4.2,0,0,1,.714,2.6ZM-8.461,12.5a2.865,2.865,0,0,0-.409-1.631,1.331,1.331,0,0,0-1.171-.6,1.419,1.419,0,0,0-1.358.781V14.1a1.433,1.433,0,0,0,1.371.8A1.329,1.329,0,0,0-8.877,14.3,3.153,3.153,0,0,0-8.461,12.5ZM-2.6,16.127A3.191,3.191,0,0,1-4.973,15.2a3.35,3.35,0,0,1-.911-2.46v-.19a4.121,4.121,0,0,1,.4-1.838,3.02,3.02,0,0,1,1.114-1.26A2.945,2.945,0,0,1-2.774,9a2.7,2.7,0,0,1,2.168.9,3.785,3.785,0,0,1,.765,2.533v.622H-4.329A2.063,2.063,0,0,0-3.761,14.4a1.706,1.706,0,0,0,1.254.5,2.089,2.089,0,0,0,1.727-.857l.832.793a2.777,2.777,0,0,1-1.1.955A3.448,3.448,0,0,1-2.6,16.127Zm-.184-5.884a1.3,1.3,0,0,0-1.025.444,2.3,2.3,0,0,0-.5,1.238h2.939v-.114a1.875,1.875,0,0,0-.413-1.171A1.289,1.289,0,0,0-2.78,10.243Zm7.731.3a3.817,3.817,0,0,0-.628-.051,1.415,1.415,0,0,0-1.428.813V16H1.352V9.132H2.825l.038.768A1.738,1.738,0,0,1,4.412,9a1.444,1.444,0,0,1,.546.089ZM9.839,16a2.381,2.381,0,0,1-.178-.641,2.4,2.4,0,0,1-1.8.768,2.423,2.423,0,0,1-1.688-.59,1.889,1.889,0,0,1-.654-1.46,1.95,1.95,0,0,1,.816-1.685A3.953,3.953,0,0,1,8.665,11.8H9.61v-.451a1.2,1.2,0,0,0-.3-.854,1.183,1.183,0,0,0-.908-.321,1.359,1.359,0,0,0-.863.263.815.815,0,0,0-.336.67H5.662a1.712,1.712,0,0,1,.375-1.057,2.5,2.5,0,0,1,1.019-.771A3.579,3.579,0,0,1,8.493,9a2.882,2.882,0,0,1,1.923.606,2.162,2.162,0,0,1,.736,1.7v3.1a3.511,3.511,0,0,0,.26,1.479V16ZM8.144,14.889A1.755,1.755,0,0,0,9,14.667a1.484,1.484,0,0,0,.606-.6V12.775H8.779a2.274,2.274,0,0,0-1.289.3.966.966,0,0,0-.432.844.9.9,0,0,0,.3.708A1.143,1.143,0,0,0,8.144,14.889ZM14.7,7.462V9.132h1.212v1.143H14.7v3.834a.844.844,0,0,0,.156.568.721.721,0,0,0,.555.175,2.376,2.376,0,0,0,.54-.063v1.193a3.8,3.8,0,0,1-1.016.146q-1.777,0-1.777-1.961V10.274h-1.13V9.132h1.13V7.462ZM18.732,16H17.189V9.132h1.542ZM17.094,7.342a.828.828,0,0,1,.225-.595.847.847,0,0,1,.644-.237.858.858,0,0,1,.647.237.822.822,0,0,1,.229.595.8.8,0,0,1-.229.585.865.865,0,0,1-.647.233.854.854,0,0,1-.644-.233A.809.809,0,0,1,17.094,7.342ZM20.122,12.5a4.05,4.05,0,0,1,.4-1.819A2.921,2.921,0,0,1,21.646,9.44,3.166,3.166,0,0,1,23.309,9a3,3,0,0,1,2.257.9,3.52,3.52,0,0,1,.936,2.374l.006.362a4.086,4.086,0,0,1-.39,1.815A2.886,2.886,0,0,1,25,15.689a3.189,3.189,0,0,1-1.679.438,2.979,2.979,0,0,1-2.326-.968,3.707,3.707,0,0,1-.873-2.58Zm1.542.133A2.767,2.767,0,0,0,22.1,14.3a1.424,1.424,0,0,0,1.219.6,1.408,1.408,0,0,0,1.216-.609,3.057,3.057,0,0,0,.435-1.784,2.732,2.732,0,0,0-.448-1.65,1.508,1.508,0,0,0-2.415-.01A3,3,0,0,0,21.665,12.636Zm7.579-3.5.044.793a2.469,2.469,0,0,1,2-.92q2.146,0,2.184,2.457V16H31.929V11.55a1.414,1.414,0,0,0-.282-.968,1.188,1.188,0,0,0-.924-.314,1.486,1.486,0,0,0-1.39.844V16H27.79V9.132ZM-35.41,22.758l2.666,7.084,2.66-7.084h2.076V32h-1.6V28.953l.159-4.075L-32.179,32h-1.149l-2.723-7.116.159,4.069V32h-1.6V22.758ZM-22.156,32a2.38,2.38,0,0,1-.178-.641,2.4,2.4,0,0,1-1.8.768,2.423,2.423,0,0,1-1.688-.59,1.889,1.889,0,0,1-.654-1.46,1.95,1.95,0,0,1,.816-1.685,3.953,3.953,0,0,1,2.333-.587h.946v-.451a1.2,1.2,0,0,0-.3-.854,1.183,1.183,0,0,0-.908-.321,1.359,1.359,0,0,0-.863.263.815.815,0,0,0-.336.67h-1.542a1.712,1.712,0,0,1,.375-1.057,2.5,2.5,0,0,1,1.019-.771A3.579,3.579,0,0,1-23.5,25a2.882,2.882,0,0,1,1.923.606,2.162,2.162,0,0,1,.736,1.7v3.1a3.511,3.511,0,0,0,.26,1.479V32Zm-1.695-1.111a1.755,1.755,0,0,0,.86-.222,1.484,1.484,0,0,0,.606-.6V28.775h-.832a2.274,2.274,0,0,0-1.289.3.966.966,0,0,0-.432.844.9.9,0,0,0,.3.708A1.143,1.143,0,0,0-23.851,30.889Zm6.056-5.757.044.793a2.469,2.469,0,0,1,2-.92q2.146,0,2.184,2.457V32h-1.542V27.55a1.414,1.414,0,0,0-.282-.968,1.188,1.188,0,0,0-.924-.314,1.486,1.486,0,0,0-1.39.844V32h-1.542V25.132ZM-7.893,32a2.381,2.381,0,0,1-.178-.641,2.4,2.4,0,0,1-1.8.768,2.423,2.423,0,0,1-1.688-.59,1.889,1.889,0,0,1-.654-1.46,1.95,1.95,0,0,1,.816-1.685A3.953,3.953,0,0,1-9.068,27.8h.946v-.451a1.2,1.2,0,0,0-.3-.854,1.183,1.183,0,0,0-.908-.321,1.359,1.359,0,0,0-.863.263.815.815,0,0,0-.336.67H-12.07a1.712,1.712,0,0,1,.375-1.057,2.5,2.5,0,0,1,1.019-.771A3.579,3.579,0,0,1-9.239,25a2.882,2.882,0,0,1,1.923.606,2.162,2.162,0,0,1,.736,1.7v3.1a3.511,3.511,0,0,0,.26,1.479V32Zm-1.695-1.111a1.755,1.755,0,0,0,.86-.222,1.484,1.484,0,0,0,.606-.6V28.775h-.832a2.274,2.274,0,0,0-1.289.3.966.966,0,0,0-.432.844.9.9,0,0,0,.3.708A1.143,1.143,0,0,0-9.588,30.889Zm4.354-2.374a4.017,4.017,0,0,1,.752-2.555,2.414,2.414,0,0,1,2-.955,2.262,2.262,0,0,1,1.847.819l.07-.692H.822v6.659a2.768,2.768,0,0,1-.841,2.133,3.2,3.2,0,0,1-2.269.781,3.658,3.658,0,0,1-1.476-.314,2.622,2.622,0,0,1-1.095-.822l.73-.927a2.2,2.2,0,0,0,1.752.844,1.7,1.7,0,0,0,1.212-.416A1.593,1.593,0,0,0-.72,31.848v-.463a2.271,2.271,0,0,1-1.777.743,2.408,2.408,0,0,1-1.971-.958A4.147,4.147,0,0,1-5.234,28.515Zm1.536.133a2.765,2.765,0,0,0,.422,1.628A1.357,1.357,0,0,0-2.1,30.87a1.484,1.484,0,0,0,1.384-.8V27.049a1.463,1.463,0,0,0-1.371-.781,1.363,1.363,0,0,0-1.184.6A3.1,3.1,0,0,0-3.7,28.648ZM5.43,32.127A3.191,3.191,0,0,1,3.053,31.2a3.35,3.35,0,0,1-.911-2.46v-.19a4.121,4.121,0,0,1,.4-1.838,3.02,3.02,0,0,1,1.114-1.26A2.945,2.945,0,0,1,5.253,25a2.7,2.7,0,0,1,2.168.9,3.785,3.785,0,0,1,.765,2.533v.622H3.7A2.063,2.063,0,0,0,4.266,30.4a1.706,1.706,0,0,0,1.254.5,2.089,2.089,0,0,0,1.727-.857l.832.793a2.777,2.777,0,0,1-1.1.955A3.448,3.448,0,0,1,5.43,32.127Zm-.184-5.884a1.3,1.3,0,0,0-1.025.444,2.3,2.3,0,0,0-.5,1.238H6.662v-.114a1.875,1.875,0,0,0-.413-1.171A1.289,1.289,0,0,0,5.246,26.243Zm5.586-1.111.044.717A2.471,2.471,0,0,1,12.857,25a1.9,1.9,0,0,1,1.885,1.054A2.436,2.436,0,0,1,16.85,25a2.141,2.141,0,0,1,1.692.628,2.767,2.767,0,0,1,.568,1.854V32H17.567V27.531a1.366,1.366,0,0,0-.286-.958,1.25,1.25,0,0,0-.946-.3,1.284,1.284,0,0,0-.86.282,1.49,1.49,0,0,0-.467.74L15.015,32H13.473V27.48a1.1,1.1,0,0,0-1.238-1.212,1.358,1.358,0,0,0-1.314.755V32H9.379V25.132Zm12.886,7a3.191,3.191,0,0,1-2.377-.924,3.35,3.35,0,0,1-.911-2.46v-.19a4.121,4.121,0,0,1,.4-1.838,3.02,3.02,0,0,1,1.114-1.26A2.945,2.945,0,0,1,23.54,25a2.7,2.7,0,0,1,2.168.9,3.785,3.785,0,0,1,.765,2.533v.622H21.985a2.063,2.063,0,0,0,.568,1.346,1.706,1.706,0,0,0,1.254.5,2.089,2.089,0,0,0,1.727-.857l.832.793a2.777,2.777,0,0,1-1.1.955A3.448,3.448,0,0,1,23.718,32.127Zm-.184-5.884a1.3,1.3,0,0,0-1.025.444,2.3,2.3,0,0,0-.5,1.238h2.939v-.114a1.875,1.875,0,0,0-.413-1.171A1.289,1.289,0,0,0,23.534,26.243ZM29.1,25.132l.044.793a2.469,2.469,0,0,1,2-.92q2.146,0,2.184,2.457V32H31.786V27.55a1.414,1.414,0,0,0-.282-.968,1.188,1.188,0,0,0-.924-.314,1.486,1.486,0,0,0-1.39.844V32H27.647V25.132Zm7.731-1.669v1.669h1.212v1.143H36.832v3.834a.844.844,0,0,0,.156.568.721.721,0,0,0,.555.175,2.376,2.376,0,0,0,.54-.063v1.193a3.8,3.8,0,0,1-1.016.146q-1.777,0-1.777-1.961V26.274H34.16V25.132h1.13V23.462Z" transform="translate(546.287 905.219)" fill="#12263f"/>
      <path id="Trazado_109820" data-name="Trazado 109820" d="M-31.438-4.043a5.234,5.234,0,0,1-.434,2.2A3.278,3.278,0,0,1-33.111-.39a3.409,3.409,0,0,1-1.854.507A3.417,3.417,0,0,1-36.814-.39a3.329,3.329,0,0,1-1.254-1.444A5.07,5.07,0,0,1-38.517-4v-.48a5.189,5.189,0,0,1,.442-2.2,3.325,3.325,0,0,1,1.248-1.462,3.4,3.4,0,0,1,1.849-.507,3.428,3.428,0,0,1,1.849.5,3.283,3.283,0,0,1,1.245,1.441,5.178,5.178,0,0,1,.445,2.188Zm-1.482-.445a3.729,3.729,0,0,0-.536-2.174,1.754,1.754,0,0,0-1.521-.756,1.749,1.749,0,0,0-1.5.753,3.657,3.657,0,0,0-.554,2.13v.492a3.7,3.7,0,0,0,.548,2.174,1.764,1.764,0,0,0,1.521.768,1.743,1.743,0,0,0,1.515-.75,3.781,3.781,0,0,0,.53-2.191Zm6.141-.551a3.523,3.523,0,0,0-.58-.047,1.306,1.306,0,0,0-1.318.75V0H-30.1V-6.34h1.359l.035.709a1.6,1.6,0,0,1,1.43-.826,1.333,1.333,0,0,1,.5.082Zm.539,1.822a3.708,3.708,0,0,1,.694-2.358A2.229,2.229,0,0,1-23.7-6.457,2.088,2.088,0,0,1-22-5.7l.064-.639h1.283V-.193a2.555,2.555,0,0,1-.776,1.969,2.957,2.957,0,0,1-2.095.721,3.376,3.376,0,0,1-1.362-.29A2.421,2.421,0,0,1-25.9,1.447l.674-.855a2.035,2.035,0,0,0,1.617.779A1.573,1.573,0,0,0-22.485.987a1.471,1.471,0,0,0,.41-1.128V-.568a2.1,2.1,0,0,1-1.641.686,2.223,2.223,0,0,1-1.819-.885A3.828,3.828,0,0,1-26.241-3.217Zm1.418.123a2.552,2.552,0,0,0,.39,1.5,1.253,1.253,0,0,0,1.081.548,1.37,1.37,0,0,0,1.277-.738V-4.57a1.351,1.351,0,0,0-1.266-.721,1.258,1.258,0,0,0-1.093.557A2.858,2.858,0,0,0-24.823-3.094ZM-15.4,0a2.2,2.2,0,0,1-.164-.592,2.216,2.216,0,0,1-1.664.709,2.237,2.237,0,0,1-1.559-.545,1.743,1.743,0,0,1-.6-1.348,1.8,1.8,0,0,1,.753-1.556,3.649,3.649,0,0,1,2.153-.542h.873v-.416a1.11,1.11,0,0,0-.275-.788,1.092,1.092,0,0,0-.838-.3,1.254,1.254,0,0,0-.8.243.753.753,0,0,0-.311.618h-1.424a1.58,1.58,0,0,1,.346-.976,2.3,2.3,0,0,1,.94-.712,3.3,3.3,0,0,1,1.327-.258,2.66,2.66,0,0,1,1.775.56,2,2,0,0,1,.68,1.573v2.859A3.241,3.241,0,0,0-13.948-.1V0Zm-1.564-1.025a1.62,1.62,0,0,0,.794-.205,1.37,1.37,0,0,0,.56-.551v-1.2h-.768a2.1,2.1,0,0,0-1.189.275.892.892,0,0,0-.4.779.832.832,0,0,0,.272.653A1.055,1.055,0,0,0-16.966-1.025Zm5.59-5.314.041.732a2.28,2.28,0,0,1,1.846-.85q1.98,0,2.016,2.268V0H-8.9V-4.107A1.306,1.306,0,0,0-9.158-5a1.1,1.1,0,0,0-.853-.29,1.372,1.372,0,0,0-1.283.779V0h-1.424V-6.34ZM-4.509,0H-5.933V-6.34h1.424ZM-6.021-7.992a.765.765,0,0,1,.208-.549.782.782,0,0,1,.595-.218.792.792,0,0,1,.6.218.759.759,0,0,1,.211.549.741.741,0,0,1-.211.54.8.8,0,0,1-.6.216.788.788,0,0,1-.595-.216A.747.747,0,0,1-6.021-7.992ZM.595-1.723A.645.645,0,0,0,.281-2.3a3.334,3.334,0,0,0-1.04-.352,5.346,5.346,0,0,1-1.213-.387A1.619,1.619,0,0,1-3.038-4.535a1.688,1.688,0,0,1,.691-1.371A2.733,2.733,0,0,1-.589-6.457a2.844,2.844,0,0,1,1.837.563,1.785,1.785,0,0,1,.7,1.459H.524a.877.877,0,0,0-.3-.683,1.168,1.168,0,0,0-.809-.272,1.262,1.262,0,0,0-.765.217.683.683,0,0,0-.3.58.577.577,0,0,0,.275.51,3.787,3.787,0,0,0,1.113.366,5.27,5.27,0,0,1,1.315.439,1.863,1.863,0,0,1,.709.612A1.561,1.561,0,0,1,2-1.8,1.652,1.652,0,0,1,1.286-.413,3.023,3.023,0,0,1-.571.117,3.278,3.278,0,0,1-1.96-.164a2.285,2.285,0,0,1-.949-.773A1.831,1.831,0,0,1-3.249-2h1.383a1,1,0,0,0,.381.776,1.48,1.48,0,0,0,.932.272A1.44,1.44,0,0,0,.3-1.163.662.662,0,0,0,.595-1.723ZM7.022,0a2.2,2.2,0,0,1-.164-.592A2.216,2.216,0,0,1,5.194.117,2.237,2.237,0,0,1,3.636-.428a1.743,1.743,0,0,1-.6-1.348,1.8,1.8,0,0,1,.753-1.556,3.649,3.649,0,0,1,2.153-.542h.873v-.416a1.11,1.11,0,0,0-.275-.788,1.092,1.092,0,0,0-.838-.3,1.254,1.254,0,0,0-.8.243.753.753,0,0,0-.311.618H3.167a1.58,1.58,0,0,1,.346-.976,2.3,2.3,0,0,1,.94-.712A3.3,3.3,0,0,1,5.78-6.457a2.66,2.66,0,0,1,1.775.56,2,2,0,0,1,.68,1.573v2.859A3.241,3.241,0,0,0,8.476-.1V0ZM5.458-1.025a1.62,1.62,0,0,0,.794-.205,1.37,1.37,0,0,0,.56-.551v-1.2H6.044A2.1,2.1,0,0,0,4.854-2.7a.892.892,0,0,0-.4.779.832.832,0,0,0,.272.653A1.055,1.055,0,0,0,5.458-1.025Zm6.053-6.855V-6.34H12.63v1.055H11.511v3.539a.779.779,0,0,0,.144.524.666.666,0,0,0,.513.161,2.193,2.193,0,0,0,.5-.059v1.1a3.507,3.507,0,0,1-.937.135q-1.641,0-1.641-1.811V-5.285H9.044V-6.34h1.043V-7.881ZM15.231,0H13.808V-6.34h1.424ZM13.72-7.992a.765.765,0,0,1,.208-.549.782.782,0,0,1,.595-.218.792.792,0,0,1,.6.218.759.759,0,0,1,.211.549.741.741,0,0,1-.211.54.8.8,0,0,1-.6.216.788.788,0,0,1-.595-.216A.747.747,0,0,1,13.72-7.992Zm2.795,4.764a3.738,3.738,0,0,1,.369-1.679,2.7,2.7,0,0,1,1.037-1.148,2.922,2.922,0,0,1,1.535-.4,2.769,2.769,0,0,1,2.083.826A3.249,3.249,0,0,1,22.4-3.439l.006.334a3.772,3.772,0,0,1-.36,1.676A2.664,2.664,0,0,1,21.018-.287a2.944,2.944,0,0,1-1.55.4A2.75,2.75,0,0,1,17.32-.776a3.422,3.422,0,0,1-.806-2.382Zm1.424.123a2.555,2.555,0,0,0,.4,1.532,1.314,1.314,0,0,0,1.125.554,1.3,1.3,0,0,0,1.122-.562,2.822,2.822,0,0,0,.4-1.646,2.522,2.522,0,0,0-.413-1.523,1.319,1.319,0,0,0-1.122-.562,1.307,1.307,0,0,0-1.107.554A2.768,2.768,0,0,0,17.938-3.105Zm7-3.234.041.732a2.28,2.28,0,0,1,1.846-.85q1.98,0,2.016,2.268V0H27.413V-4.107A1.306,1.306,0,0,0,27.152-5a1.1,1.1,0,0,0-.853-.29,1.372,1.372,0,0,0-1.283.779V0H23.593V-6.34ZM34.075,0a2.2,2.2,0,0,1-.164-.592,2.216,2.216,0,0,1-1.664.709,2.237,2.237,0,0,1-1.559-.545,1.743,1.743,0,0,1-.6-1.348,1.8,1.8,0,0,1,.753-1.556,3.649,3.649,0,0,1,2.153-.542h.873v-.416a1.11,1.11,0,0,0-.275-.788,1.092,1.092,0,0,0-.838-.3,1.254,1.254,0,0,0-.8.243.753.753,0,0,0-.311.618H30.22a1.58,1.58,0,0,1,.346-.976,2.3,2.3,0,0,1,.94-.712,3.3,3.3,0,0,1,1.327-.258,2.66,2.66,0,0,1,1.775.56,2,2,0,0,1,.68,1.573v2.859A3.241,3.241,0,0,0,35.528-.1V0ZM32.511-1.025A1.62,1.62,0,0,0,33.3-1.23a1.37,1.37,0,0,0,.56-.551v-1.2H33.1a2.1,2.1,0,0,0-1.189.275.892.892,0,0,0-.4.779.832.832,0,0,0,.272.653A1.055,1.055,0,0,0,32.511-1.025ZM38.294,0H36.87V-9h1.424ZM-16.547,11.8a1.03,1.03,0,0,0-.4-.867,4.759,4.759,0,0,0-1.427-.615,6.89,6.89,0,0,1-1.641-.691,2.189,2.189,0,0,1-1.166-1.91,2.079,2.079,0,0,1,.841-1.7,3.4,3.4,0,0,1,2.183-.668,3.687,3.687,0,0,1,1.588.328,2.606,2.606,0,0,1,1.1.935,2.4,2.4,0,0,1,.4,1.345h-1.477a1.32,1.32,0,0,0-.419-1.037,1.738,1.738,0,0,0-1.2-.375,1.811,1.811,0,0,0-1.128.309,1.028,1.028,0,0,0-.4.864.931.931,0,0,0,.434.779,5.006,5.006,0,0,0,1.43.607,6.548,6.548,0,0,1,1.6.673,2.544,2.544,0,0,1,.885.867,2.258,2.258,0,0,1,.281,1.146,2.03,2.03,0,0,1-.817,1.7,3.545,3.545,0,0,1-2.218.63,4.168,4.168,0,0,1-1.7-.343,2.859,2.859,0,0,1-1.207-.946,2.358,2.358,0,0,1-.431-1.406h1.482a1.38,1.38,0,0,0,.48,1.125,2.1,2.1,0,0,0,1.377.4,1.828,1.828,0,0,0,1.163-.313A1.011,1.011,0,0,0-16.547,11.8Zm5.438,2.314a2.946,2.946,0,0,1-2.194-.853,3.093,3.093,0,0,1-.841-2.271v-.176a3.8,3.8,0,0,1,.366-1.7A2.787,2.787,0,0,1-12.75,7.959a2.719,2.719,0,0,1,1.477-.416,2.488,2.488,0,0,1,2,.826,3.494,3.494,0,0,1,.706,2.338v.574h-4.143a1.9,1.9,0,0,0,.524,1.242,1.574,1.574,0,0,0,1.157.457,1.928,1.928,0,0,0,1.594-.791l.768.732a2.563,2.563,0,0,1-1.017.882A3.183,3.183,0,0,1-11.109,14.117Zm-.17-5.432a1.2,1.2,0,0,0-.946.41,2.126,2.126,0,0,0-.46,1.143h2.713v-.105a1.731,1.731,0,0,0-.381-1.081A1.19,1.19,0,0,0-11.279,8.686Zm6.422,4.295a1.287,1.287,0,0,0,.885-.311A1.061,1.061,0,0,0-3.6,11.9h1.342a2.091,2.091,0,0,1-.369,1.1,2.421,2.421,0,0,1-.937.812,2.794,2.794,0,0,1-1.277.3,2.7,2.7,0,0,1-2.109-.861,3.416,3.416,0,0,1-.779-2.379V10.73a3.359,3.359,0,0,1,.773-2.317,2.678,2.678,0,0,1,2.109-.87A2.6,2.6,0,0,1-3,8.2a2.361,2.361,0,0,1,.747,1.731H-3.6a1.3,1.3,0,0,0-.372-.9,1.2,1.2,0,0,0-.888-.352,1.253,1.253,0,0,0-1.066.5A2.556,2.556,0,0,0-6.3,10.707v.229a2.6,2.6,0,0,0,.372,1.538A1.252,1.252,0,0,0-4.857,12.98Zm7.518.4a2.208,2.208,0,0,1-1.781.738,1.968,1.968,0,0,1-1.562-.6,2.567,2.567,0,0,1-.53-1.746V7.66H.211v4.09q0,1.207,1,1.207a1.407,1.407,0,0,0,1.4-.744V7.66H4.037V14H2.7ZM8.807,8.961a3.523,3.523,0,0,0-.58-.047,1.306,1.306,0,0,0-1.318.75V14H5.484V7.66H6.844l.035.709a1.6,1.6,0,0,1,1.43-.826,1.333,1.333,0,0,1,.5.082ZM11.221,14H9.8V7.66h1.424ZM9.709,6.008a.765.765,0,0,1,.208-.549.782.782,0,0,1,.595-.218.792.792,0,0,1,.6.218.759.759,0,0,1,.211.549.741.741,0,0,1-.211.54.8.8,0,0,1-.6.216.788.788,0,0,1-.595-.216A.747.747,0,0,1,9.709,6.008Zm4.846.111V7.66h1.119V8.715H14.555v3.539a.779.779,0,0,0,.144.524.666.666,0,0,0,.513.161,2.193,2.193,0,0,0,.5-.059v1.1a3.507,3.507,0,0,1-.937.135q-1.641,0-1.641-1.811V8.715H12.088V7.66h1.043V6.119Zm4.424,5.842,1.289-4.3h1.518l-2.52,7.3a2.048,2.048,0,0,1-1.969,1.6,2.538,2.538,0,0,1-.686-.106V15.348l.27.018a1.386,1.386,0,0,0,.812-.2,1.3,1.3,0,0,0,.431-.659l.205-.544L16.1,7.66h1.535Z" transform="translate(714.745 473.318)" fill="#12263f"/>
      <path id="Trazado_109821" data-name="Trazado 109821" d="M6.113-2.152H2.533L1.784,0H.114L3.605-9.242H5.046L8.544,0H6.868ZM2.983-3.447H5.662L4.323-7.281ZM13.292-1.866a.7.7,0,0,0-.34-.628,3.612,3.612,0,0,0-1.127-.381,5.792,5.792,0,0,1-1.314-.419A1.754,1.754,0,0,1,9.356-4.913,1.828,1.828,0,0,1,10.105-6.4a2.961,2.961,0,0,1,1.9-.6A3.081,3.081,0,0,1,14-6.386a1.934,1.934,0,0,1,.759,1.581H13.216a.951.951,0,0,0-.33-.74,1.265,1.265,0,0,0-.876-.3,1.367,1.367,0,0,0-.828.235.74.74,0,0,0-.321.628.625.625,0,0,0,.3.552,4.1,4.1,0,0,0,1.206.4,5.709,5.709,0,0,1,1.425.476,2.018,2.018,0,0,1,.768.663,1.692,1.692,0,0,1,.251.939,1.789,1.789,0,0,1-.768,1.5,3.275,3.275,0,0,1-2.012.574,3.551,3.551,0,0,1-1.5-.3A2.476,2.476,0,0,1,9.5-1.016a1.983,1.983,0,0,1-.368-1.149h1.5a1.087,1.087,0,0,0,.413.841,1.6,1.6,0,0,0,1.009.3,1.56,1.56,0,0,0,.927-.232A.717.717,0,0,0,13.292-1.866Zm6.709,0a.7.7,0,0,0-.34-.628,3.612,3.612,0,0,0-1.127-.381,5.792,5.792,0,0,1-1.314-.419,1.754,1.754,0,0,1-1.155-1.619A1.828,1.828,0,0,1,16.815-6.4a2.961,2.961,0,0,1,1.9-.6,3.081,3.081,0,0,1,1.99.609,1.934,1.934,0,0,1,.759,1.581H19.925a.951.951,0,0,0-.33-.74,1.265,1.265,0,0,0-.876-.3,1.367,1.367,0,0,0-.828.235.74.74,0,0,0-.321.628.625.625,0,0,0,.3.552,4.1,4.1,0,0,0,1.206.4,5.709,5.709,0,0,1,1.425.476,2.018,2.018,0,0,1,.768.663,1.692,1.692,0,0,1,.251.939,1.789,1.789,0,0,1-.768,1.5,3.275,3.275,0,0,1-2.012.574,3.551,3.551,0,0,1-1.5-.3,2.476,2.476,0,0,1-1.028-.838,1.983,1.983,0,0,1-.368-1.149h1.5a1.087,1.087,0,0,0,.413.841,1.6,1.6,0,0,0,1.009.3,1.56,1.56,0,0,0,.927-.232A.717.717,0,0,0,20-1.866ZM25.886.127A3.191,3.191,0,0,1,23.509-.8a3.35,3.35,0,0,1-.911-2.46v-.19a4.121,4.121,0,0,1,.4-1.838,3.02,3.02,0,0,1,1.114-1.26A2.945,2.945,0,0,1,25.708-7a2.7,2.7,0,0,1,2.168.9,3.785,3.785,0,0,1,.765,2.533v.622H24.153A2.063,2.063,0,0,0,24.721-1.6a1.706,1.706,0,0,0,1.254.5A2.089,2.089,0,0,0,27.7-1.961l.832.793a2.777,2.777,0,0,1-1.1.955A3.448,3.448,0,0,1,25.886.127ZM25.7-5.757a1.3,1.3,0,0,0-1.025.444,2.3,2.3,0,0,0-.5,1.238h2.939v-.114A1.875,1.875,0,0,0,26.7-5.361,1.289,1.289,0,0,0,25.7-5.757Zm6.068-2.78v1.669h1.212v1.143H31.77v3.834a.844.844,0,0,0,.156.568.721.721,0,0,0,.555.175,2.376,2.376,0,0,0,.54-.063V-.019A3.8,3.8,0,0,1,32,.127q-1.777,0-1.777-1.961V-5.726H29.1V-6.868h1.13V-8.538ZM7.992,12.991A3.337,3.337,0,0,1,6.9,15.3a3.722,3.722,0,0,1-2.533.828A3.6,3.6,0,0,1,2.422,15.6a3.437,3.437,0,0,1-1.3-1.489,5.372,5.372,0,0,1-.476-2.241v-.863a5.411,5.411,0,0,1,.463-2.3A3.492,3.492,0,0,1,2.441,7.17a3.709,3.709,0,0,1,2-.54,3.572,3.572,0,0,1,2.463.828A3.461,3.461,0,0,1,7.992,9.8h-1.6a2.283,2.283,0,0,0-.581-1.438,1.92,1.92,0,0,0-1.368-.441,1.875,1.875,0,0,0-1.609.766,3.826,3.826,0,0,0-.574,2.246v.82A4.059,4.059,0,0,0,2.8,14.044a1.78,1.78,0,0,0,1.571.788,2.076,2.076,0,0,0,1.422-.425,2.218,2.218,0,0,0,.6-1.416ZM10.918,16H9.375V6.25h1.542ZM16.7,16a2.38,2.38,0,0,1-.178-.641,2.595,2.595,0,0,1-3.491.178,1.889,1.889,0,0,1-.654-1.46,1.95,1.95,0,0,1,.816-1.685,3.953,3.953,0,0,1,2.333-.587h.946v-.451a1.2,1.2,0,0,0-.3-.854,1.183,1.183,0,0,0-.908-.321,1.359,1.359,0,0,0-.863.263.815.815,0,0,0-.336.67H12.524a1.712,1.712,0,0,1,.375-1.057,2.5,2.5,0,0,1,1.019-.771A3.579,3.579,0,0,1,15.355,9a2.882,2.882,0,0,1,1.923.606,2.162,2.162,0,0,1,.736,1.7v3.1a3.511,3.511,0,0,0,.26,1.479V16Zm-1.695-1.111a1.755,1.755,0,0,0,.86-.222,1.484,1.484,0,0,0,.606-.6V12.775h-.832a2.274,2.274,0,0,0-1.289.3.966.966,0,0,0-.432.844.9.9,0,0,0,.3.708A1.143,1.143,0,0,0,15.006,14.889Zm8.474-.755a.7.7,0,0,0-.34-.628,3.612,3.612,0,0,0-1.127-.381,5.792,5.792,0,0,1-1.314-.419,1.754,1.754,0,0,1-1.155-1.619A1.828,1.828,0,0,1,20.293,9.6,2.961,2.961,0,0,1,22.2,9a3.081,3.081,0,0,1,1.99.609,1.934,1.934,0,0,1,.759,1.581H23.4a.951.951,0,0,0-.33-.74,1.265,1.265,0,0,0-.876-.3,1.367,1.367,0,0,0-.828.235.74.74,0,0,0-.321.628.625.625,0,0,0,.3.552,4.1,4.1,0,0,0,1.206.4,5.709,5.709,0,0,1,1.425.476,2.018,2.018,0,0,1,.768.663,1.692,1.692,0,0,1,.251.939,1.789,1.789,0,0,1-.768,1.5,3.275,3.275,0,0,1-2.012.574,3.551,3.551,0,0,1-1.5-.3,2.476,2.476,0,0,1-1.028-.838,1.983,1.983,0,0,1-.368-1.149h1.5a1.087,1.087,0,0,0,.413.841,1.6,1.6,0,0,0,1.009.3,1.56,1.56,0,0,0,.927-.232A.717.717,0,0,0,23.48,14.134Zm6.709,0a.7.7,0,0,0-.34-.628,3.612,3.612,0,0,0-1.127-.381,5.792,5.792,0,0,1-1.314-.419,1.754,1.754,0,0,1-1.155-1.619A1.828,1.828,0,0,1,27,9.6a2.961,2.961,0,0,1,1.9-.6,3.081,3.081,0,0,1,1.99.609,1.934,1.934,0,0,1,.759,1.581H30.113a.951.951,0,0,0-.33-.74,1.265,1.265,0,0,0-.876-.3,1.367,1.367,0,0,0-.828.235.74.74,0,0,0-.321.628.625.625,0,0,0,.3.552,4.1,4.1,0,0,0,1.206.4,5.709,5.709,0,0,1,1.425.476,2.018,2.018,0,0,1,.768.663,1.692,1.692,0,0,1,.251.939,1.789,1.789,0,0,1-.768,1.5,3.275,3.275,0,0,1-2.012.574,3.551,3.551,0,0,1-1.5-.3,2.476,2.476,0,0,1-1.028-.838,1.983,1.983,0,0,1-.368-1.149h1.5a1.087,1.087,0,0,0,.413.841,1.6,1.6,0,0,0,1.009.3,1.56,1.56,0,0,0,.927-.232A.717.717,0,0,0,30.189,14.134ZM34.69,16H33.147V9.132H34.69ZM33.052,7.342a.828.828,0,0,1,.225-.595.847.847,0,0,1,.644-.237.858.858,0,0,1,.647.237.822.822,0,0,1,.229.595.8.8,0,0,1-.229.585.865.865,0,0,1-.647.233.854.854,0,0,1-.644-.233A.809.809,0,0,1,33.052,7.342ZM36.778,16V10.274H35.731V9.132h1.047v-.47a2.748,2.748,0,0,1,.343-1.384,2.132,2.132,0,0,1,.952-.87,3.427,3.427,0,0,1,1.479-.292,4.311,4.311,0,0,1,.974.108q.467.108.968.273L41.26,7.773a4.91,4.91,0,0,0-1.6-.3,1.429,1.429,0,0,0-1.022.308,1.231,1.231,0,0,0-.317.924v.432h1.352v1.143H38.321V16Zm5.446,0H40.682V9.132h1.542Zm4.532-1.1a1.4,1.4,0,0,0,.958-.336,1.149,1.149,0,0,0,.406-.832h1.454a2.266,2.266,0,0,1-.4,1.2,2.623,2.623,0,0,1-1.016.879,3.027,3.027,0,0,1-1.384.324,2.928,2.928,0,0,1-2.285-.933,3.7,3.7,0,0,1-.844-2.577v-.159a3.639,3.639,0,0,1,.838-2.51A2.9,2.9,0,0,1,46.77,9a2.822,2.822,0,0,1,2,.714,2.558,2.558,0,0,1,.809,1.876H48.122a1.412,1.412,0,0,0-.4-.971,1.3,1.3,0,0,0-.962-.381,1.357,1.357,0,0,0-1.155.543,2.769,2.769,0,0,0-.413,1.647v.248a2.815,2.815,0,0,0,.4,1.666A1.356,1.356,0,0,0,46.757,14.9ZM54.844,16a2.381,2.381,0,0,1-.178-.641,2.595,2.595,0,0,1-3.491.178,1.889,1.889,0,0,1-.654-1.46,1.95,1.95,0,0,1,.816-1.685,3.953,3.953,0,0,1,2.333-.587h.946v-.451a1.2,1.2,0,0,0-.3-.854,1.183,1.183,0,0,0-.908-.321,1.359,1.359,0,0,0-.863.263.815.815,0,0,0-.336.67H50.667a1.712,1.712,0,0,1,.375-1.057,2.5,2.5,0,0,1,1.019-.771A3.579,3.579,0,0,1,53.5,9a2.882,2.882,0,0,1,1.923.606,2.162,2.162,0,0,1,.736,1.7v3.1a3.511,3.511,0,0,0,.26,1.479V16Zm-1.695-1.111a1.755,1.755,0,0,0,.86-.222,1.484,1.484,0,0,0,.606-.6V12.775h-.832a2.274,2.274,0,0,0-1.289.3.966.966,0,0,0-.432.844.9.9,0,0,0,.3.708A1.143,1.143,0,0,0,53.149,14.889Zm6.557-7.427V9.132h1.212v1.143H59.706v3.834a.844.844,0,0,0,.156.568.721.721,0,0,0,.555.175,2.376,2.376,0,0,0,.54-.063v1.193a3.8,3.8,0,0,1-1.016.146q-1.777,0-1.777-1.961V10.274h-1.13V9.132h1.13V7.462ZM63.737,16H62.194V9.132h1.542ZM62.1,7.342a.828.828,0,0,1,.225-.595.847.847,0,0,1,.644-.237.858.858,0,0,1,.647.237.822.822,0,0,1,.229.595.8.8,0,0,1-.229.585.865.865,0,0,1-.647.233.854.854,0,0,1-.644-.233A.809.809,0,0,1,62.1,7.342ZM65.127,12.5a4.05,4.05,0,0,1,.4-1.819A2.921,2.921,0,0,1,66.65,9.44,3.166,3.166,0,0,1,68.313,9a3,3,0,0,1,2.257.9,3.52,3.52,0,0,1,.936,2.374l.006.362a4.086,4.086,0,0,1-.39,1.815,2.886,2.886,0,0,1-1.117,1.238,3.189,3.189,0,0,1-1.679.438A2.979,2.979,0,0,1,66,15.159a3.707,3.707,0,0,1-.873-2.58Zm1.542.133a2.767,2.767,0,0,0,.438,1.66,1.424,1.424,0,0,0,1.219.6,1.408,1.408,0,0,0,1.216-.609,3.057,3.057,0,0,0,.435-1.784,2.732,2.732,0,0,0-.448-1.65,1.508,1.508,0,0,0-2.415-.01A3,3,0,0,0,66.669,12.636Zm7.579-3.5.044.793a2.469,2.469,0,0,1,2-.92q2.146,0,2.184,2.457V16H76.934V11.55a1.414,1.414,0,0,0-.282-.968,1.188,1.188,0,0,0-.924-.314,1.486,1.486,0,0,0-1.39.844V16H72.795V9.132ZM.546,29.505A2.115,2.115,0,0,1,.9,28.328a5.481,5.481,0,0,1,1.377-1.273A5.753,5.753,0,0,1,1.52,25.9a2.39,2.39,0,0,1,.448-2.637,2.464,2.464,0,0,1,1.777-.632,2.345,2.345,0,0,1,1.654.594,1.918,1.918,0,0,1,.644,1.469,2.025,2.025,0,0,1-.292,1.063,3.46,3.46,0,0,1-.958.968l-.628.457L5.948,29.29a3.686,3.686,0,0,0,.387-1.695H7.674a4.617,4.617,0,0,1-.8,2.8L8.233,32H6.443l-.521-.616a3.824,3.824,0,0,1-2.361.743A3.19,3.19,0,0,1,1.368,31.4,2.41,2.41,0,0,1,.546,29.505Zm3.06,1.39a2.355,2.355,0,0,0,1.46-.521l-2.019-2.38-.2.14a1.649,1.649,0,0,0-.762,1.32A1.385,1.385,0,0,0,2.5,30.5,1.519,1.519,0,0,0,3.605,30.9Zm-.851-5.954a2.361,2.361,0,0,0,.654,1.339l.7-.482.2-.159a1.142,1.142,0,0,0,.394-.9.82.82,0,0,0-.273-.619.969.969,0,0,0-.692-.257.9.9,0,0,0-.717.3A1.124,1.124,0,0,0,2.755,24.941Zm16.783,4.05A3.337,3.337,0,0,1,18.446,31.3a3.722,3.722,0,0,1-2.533.828,3.6,3.6,0,0,1-1.946-.524,3.437,3.437,0,0,1-1.3-1.489,5.372,5.372,0,0,1-.476-2.241v-.863a5.411,5.411,0,0,1,.463-2.3,3.492,3.492,0,0,1,1.33-1.536,3.709,3.709,0,0,1,2-.54,3.572,3.572,0,0,1,2.463.828A3.461,3.461,0,0,1,19.538,25.8h-1.6a2.283,2.283,0,0,0-.581-1.438,1.92,1.92,0,0,0-1.368-.441,1.875,1.875,0,0,0-1.609.766,3.826,3.826,0,0,0-.574,2.246v.82a4.059,4.059,0,0,0,.536,2.287,1.78,1.78,0,0,0,1.571.788,2.076,2.076,0,0,0,1.422-.425,2.218,2.218,0,0,0,.6-1.416Zm1-.489a4.05,4.05,0,0,1,.4-1.819,2.921,2.921,0,0,1,1.124-1.244A3.166,3.166,0,0,1,23.721,25a3,3,0,0,1,2.257.9,3.52,3.52,0,0,1,.936,2.374l.006.362a4.086,4.086,0,0,1-.39,1.815,2.886,2.886,0,0,1-1.117,1.238,3.189,3.189,0,0,1-1.679.438,2.979,2.979,0,0,1-2.326-.968,3.707,3.707,0,0,1-.873-2.58Zm1.542.133a2.767,2.767,0,0,0,.438,1.66,1.424,1.424,0,0,0,1.219.6,1.408,1.408,0,0,0,1.216-.609,3.057,3.057,0,0,0,.435-1.784,2.732,2.732,0,0,0-.448-1.65,1.508,1.508,0,0,0-2.415-.01A3,3,0,0,0,22.077,28.636Zm7.579-3.5.044.793a2.469,2.469,0,0,1,2-.92q2.146,0,2.184,2.457V32H32.341V27.55a1.414,1.414,0,0,0-.282-.968,1.188,1.188,0,0,0-.924-.314,1.486,1.486,0,0,0-1.39.844V32H28.2V25.132Zm7.731-1.669v1.669H38.6v1.143H37.388v3.834a.844.844,0,0,0,.156.568.721.721,0,0,0,.555.175,2.376,2.376,0,0,0,.54-.063v1.193a3.8,3.8,0,0,1-1.016.146q-1.777,0-1.777-1.961V26.274h-1.13V25.132h1.13V23.462Zm5.986,3.079a3.817,3.817,0,0,0-.628-.051,1.415,1.415,0,0,0-1.428.813V32H39.774V25.132h1.473l.038.768a1.738,1.738,0,0,1,1.549-.9,1.444,1.444,0,0,1,.546.089Zm.457,1.961a4.05,4.05,0,0,1,.4-1.819,2.921,2.921,0,0,1,1.124-1.244A3.166,3.166,0,0,1,47.017,25a3,3,0,0,1,2.257.9,3.52,3.52,0,0,1,.936,2.374l.006.362a4.086,4.086,0,0,1-.39,1.815,2.886,2.886,0,0,1-1.117,1.238,3.189,3.189,0,0,1-1.679.438,2.979,2.979,0,0,1-2.326-.968,3.707,3.707,0,0,1-.873-2.58Zm1.542.133a2.767,2.767,0,0,0,.438,1.66,1.424,1.424,0,0,0,1.219.6,1.408,1.408,0,0,0,1.216-.609A3.057,3.057,0,0,0,48.68,28.5a2.732,2.732,0,0,0-.448-1.65,1.508,1.508,0,0,0-2.415-.01A3,3,0,0,0,45.373,28.636ZM53.162,32H51.619V22.25h1.542Z" transform="translate(775.706 584.036)" fill="#12263f"/>
      <path id="Trazado_109822" data-name="Trazado 109822" d="M-21.4-3.164V0h-1.482V-8.531h3.264a3.3,3.3,0,0,1,2.271.745,2.5,2.5,0,0,1,.841,1.971,2.422,2.422,0,0,1-.823,1.953,3.46,3.46,0,0,1-2.306.7Zm0-1.2h1.781a1.754,1.754,0,0,0,1.207-.372A1.367,1.367,0,0,0-18-5.807a1.475,1.475,0,0,0-.422-1.1,1.626,1.626,0,0,0-1.16-.425H-21.4ZM-12.639.117a2.946,2.946,0,0,1-2.194-.853,3.093,3.093,0,0,1-.841-2.271v-.176a3.8,3.8,0,0,1,.366-1.7,2.787,2.787,0,0,1,1.028-1.163A2.719,2.719,0,0,1-12.8-6.457a2.488,2.488,0,0,1,2,.826A3.494,3.494,0,0,1-10.1-3.293v.574h-4.143a1.9,1.9,0,0,0,.524,1.242,1.574,1.574,0,0,0,1.157.457,1.928,1.928,0,0,0,1.594-.791l.768.732A2.563,2.563,0,0,1-11.212-.2,3.183,3.183,0,0,1-12.639.117Zm-.17-5.432a1.2,1.2,0,0,0-.946.41,2.126,2.126,0,0,0-.46,1.143H-11.5v-.105a1.731,1.731,0,0,0-.381-1.081A1.19,1.19,0,0,0-12.809-5.314Zm7.137.275a3.523,3.523,0,0,0-.58-.047,1.306,1.306,0,0,0-1.318.75V0H-8.994V-6.34h1.359l.035.709a1.6,1.6,0,0,1,1.43-.826,1.333,1.333,0,0,1,.5.082Zm4.453,3.316a.645.645,0,0,0-.313-.58,3.334,3.334,0,0,0-1.04-.352,5.346,5.346,0,0,1-1.213-.387A1.619,1.619,0,0,1-4.852-4.535,1.688,1.688,0,0,1-4.16-5.906,2.733,2.733,0,0,1-2.4-6.457a2.844,2.844,0,0,1,1.837.563,1.785,1.785,0,0,1,.7,1.459H-1.289a.877.877,0,0,0-.3-.683A1.168,1.168,0,0,0-2.4-5.391a1.262,1.262,0,0,0-.765.217.683.683,0,0,0-.3.58.577.577,0,0,0,.275.51,3.787,3.787,0,0,0,1.113.366,5.27,5.27,0,0,1,1.315.439,1.863,1.863,0,0,1,.709.612A1.561,1.561,0,0,1,.182-1.8,1.652,1.652,0,0,1-.527-.413a3.023,3.023,0,0,1-1.857.53A3.278,3.278,0,0,1-3.773-.164a2.285,2.285,0,0,1-.949-.773A1.831,1.831,0,0,1-5.062-2H-3.68a1,1,0,0,0,.381.776,1.48,1.48,0,0,0,.932.272,1.44,1.44,0,0,0,.855-.214A.662.662,0,0,0-1.219-1.723ZM1.154-3.229a3.738,3.738,0,0,1,.369-1.679A2.7,2.7,0,0,1,2.561-6.056a2.922,2.922,0,0,1,1.535-.4,2.769,2.769,0,0,1,2.083.826,3.249,3.249,0,0,1,.864,2.191l.006.334a3.772,3.772,0,0,1-.36,1.676A2.664,2.664,0,0,1,5.657-.287a2.944,2.944,0,0,1-1.55.4A2.75,2.75,0,0,1,1.96-.776a3.422,3.422,0,0,1-.806-2.382Zm1.424.123a2.555,2.555,0,0,0,.4,1.532,1.314,1.314,0,0,0,1.125.554,1.3,1.3,0,0,0,1.122-.562,2.822,2.822,0,0,0,.4-1.646,2.522,2.522,0,0,0-.413-1.523A1.319,1.319,0,0,0,4.1-5.314a1.307,1.307,0,0,0-1.107.554A2.768,2.768,0,0,0,2.578-3.105Zm7-3.234.041.732a2.28,2.28,0,0,1,1.846-.85q1.98,0,2.016,2.268V0H12.053V-4.107A1.306,1.306,0,0,0,11.792-5a1.1,1.1,0,0,0-.853-.29,1.372,1.372,0,0,0-1.283.779V0H8.232V-6.34ZM18.715,0a2.2,2.2,0,0,1-.164-.592,2.216,2.216,0,0,1-1.664.709,2.237,2.237,0,0,1-1.559-.545,1.743,1.743,0,0,1-.6-1.348,1.8,1.8,0,0,1,.753-1.556,3.649,3.649,0,0,1,2.153-.542H18.5v-.416a1.11,1.11,0,0,0-.275-.788,1.092,1.092,0,0,0-.838-.3,1.254,1.254,0,0,0-.8.243.753.753,0,0,0-.311.618H14.859a1.58,1.58,0,0,1,.346-.976,2.3,2.3,0,0,1,.94-.712,3.3,3.3,0,0,1,1.327-.258,2.66,2.66,0,0,1,1.775.56,2,2,0,0,1,.68,1.573v2.859A3.241,3.241,0,0,0,20.168-.1V0ZM17.15-1.025a1.62,1.62,0,0,0,.794-.205,1.37,1.37,0,0,0,.56-.551v-1.2h-.768a2.1,2.1,0,0,0-1.189.275.892.892,0,0,0-.4.779.832.832,0,0,0,.272.653A1.055,1.055,0,0,0,17.15-1.025ZM22.934,0H21.51V-9h1.424Zm-39.48,11.8a1.03,1.03,0,0,0-.4-.867,4.759,4.759,0,0,0-1.427-.615,6.89,6.89,0,0,1-1.641-.691,2.189,2.189,0,0,1-1.166-1.91,2.079,2.079,0,0,1,.841-1.7,3.4,3.4,0,0,1,2.183-.668,3.687,3.687,0,0,1,1.588.328,2.606,2.606,0,0,1,1.1.935,2.4,2.4,0,0,1,.4,1.345h-1.477a1.32,1.32,0,0,0-.419-1.037,1.738,1.738,0,0,0-1.2-.375,1.811,1.811,0,0,0-1.128.309,1.028,1.028,0,0,0-.4.864.931.931,0,0,0,.434.779,5.006,5.006,0,0,0,1.43.607,6.548,6.548,0,0,1,1.6.673,2.544,2.544,0,0,1,.885.867,2.258,2.258,0,0,1,.281,1.146,2.03,2.03,0,0,1-.817,1.7,3.545,3.545,0,0,1-2.218.63,4.168,4.168,0,0,1-1.7-.343,2.859,2.859,0,0,1-1.207-.946,2.358,2.358,0,0,1-.431-1.406h1.482a1.38,1.38,0,0,0,.48,1.125,2.1,2.1,0,0,0,1.377.4,1.828,1.828,0,0,0,1.163-.313A1.011,1.011,0,0,0-16.547,11.8Zm5.438,2.314a2.946,2.946,0,0,1-2.194-.853,3.093,3.093,0,0,1-.841-2.271v-.176a3.8,3.8,0,0,1,.366-1.7A2.787,2.787,0,0,1-12.75,7.959a2.719,2.719,0,0,1,1.477-.416,2.488,2.488,0,0,1,2,.826,3.494,3.494,0,0,1,.706,2.338v.574h-4.143a1.9,1.9,0,0,0,.524,1.242,1.574,1.574,0,0,0,1.157.457,1.928,1.928,0,0,0,1.594-.791l.768.732a2.563,2.563,0,0,1-1.017.882A3.183,3.183,0,0,1-11.109,14.117Zm-.17-5.432a1.2,1.2,0,0,0-.946.41,2.126,2.126,0,0,0-.46,1.143h2.713v-.105a1.731,1.731,0,0,0-.381-1.081A1.19,1.19,0,0,0-11.279,8.686Zm6.422,4.295a1.287,1.287,0,0,0,.885-.311A1.061,1.061,0,0,0-3.6,11.9h1.342a2.091,2.091,0,0,1-.369,1.1,2.421,2.421,0,0,1-.937.812,2.794,2.794,0,0,1-1.277.3,2.7,2.7,0,0,1-2.109-.861,3.416,3.416,0,0,1-.779-2.379V10.73a3.359,3.359,0,0,1,.773-2.317,2.678,2.678,0,0,1,2.109-.87A2.6,2.6,0,0,1-3,8.2a2.361,2.361,0,0,1,.747,1.731H-3.6a1.3,1.3,0,0,0-.372-.9,1.2,1.2,0,0,0-.888-.352,1.253,1.253,0,0,0-1.066.5A2.556,2.556,0,0,0-6.3,10.707v.229a2.6,2.6,0,0,0,.372,1.538A1.252,1.252,0,0,0-4.857,12.98Zm7.518.4a2.208,2.208,0,0,1-1.781.738,1.968,1.968,0,0,1-1.562-.6,2.567,2.567,0,0,1-.53-1.746V7.66H.211v4.09q0,1.207,1,1.207a1.407,1.407,0,0,0,1.4-.744V7.66H4.037V14H2.7ZM8.807,8.961a3.523,3.523,0,0,0-.58-.047,1.306,1.306,0,0,0-1.318.75V14H5.484V7.66H6.844l.035.709a1.6,1.6,0,0,1,1.43-.826,1.333,1.333,0,0,1,.5.082ZM11.221,14H9.8V7.66h1.424ZM9.709,6.008a.765.765,0,0,1,.208-.549.782.782,0,0,1,.595-.218.792.792,0,0,1,.6.218.759.759,0,0,1,.211.549.741.741,0,0,1-.211.54.8.8,0,0,1-.6.216.788.788,0,0,1-.595-.216A.747.747,0,0,1,9.709,6.008Zm4.846.111V7.66h1.119V8.715H14.555v3.539a.779.779,0,0,0,.144.524.666.666,0,0,0,.513.161,2.193,2.193,0,0,0,.5-.059v1.1a3.507,3.507,0,0,1-.937.135q-1.641,0-1.641-1.811V8.715H12.088V7.66h1.043V6.119Zm4.424,5.842,1.289-4.3h1.518l-2.52,7.3a2.048,2.048,0,0,1-1.969,1.6,2.538,2.538,0,0,1-.686-.106V15.348l.27.018a1.386,1.386,0,0,0,.812-.2,1.3,1.3,0,0,0,.431-.659l.205-.544L16.1,7.66h1.535Z" transform="translate(787.951 742.917)" fill="#12263f"/>
      <text id="Information_Security" data-name="Information
Security" transform="translate(543.437 663.033)" fill="#12263f" font-size="10" font-family="Roboto-Medium, Roboto" font-weight="500"><tspan x="-26.191" y="0">Information</tspan><tspan x="-18.228" y="12">Security</tspan></text>
      <path id="Trazado_109823" data-name="Trazado 109823" d="M2.545-3.428V0H.939V-9.242H4.475a3.575,3.575,0,0,1,2.46.807A2.714,2.714,0,0,1,7.846-6.3a2.623,2.623,0,0,1-.892,2.116,3.748,3.748,0,0,1-2.5.756Zm0-1.295h1.93a1.9,1.9,0,0,0,1.308-.4,1.481,1.481,0,0,0,.451-1.165,1.6,1.6,0,0,0-.457-1.2,1.762,1.762,0,0,0-1.257-.46H2.545Zm8.074-1.4A2.414,2.414,0,0,1,12.53-7q2.2,0,2.228,2.507V0H13.216V-4.431a1.356,1.356,0,0,0-.308-1.006,1.259,1.259,0,0,0-.9-.3,1.486,1.486,0,0,0-1.384.825V0H9.077V-9.75H10.62Zm8.1,3.91,1.4-4.659H21.76L19.03,1.041A2.218,2.218,0,0,1,16.9,2.774a2.75,2.75,0,0,1-.743-.115V1.46l.292.019a1.5,1.5,0,0,0,.879-.212,1.409,1.409,0,0,0,.467-.714l.222-.59L15.6-6.868h1.663Zm7.776.343a.7.7,0,0,0-.34-.628,3.612,3.612,0,0,0-1.127-.381,5.792,5.792,0,0,1-1.314-.419A1.754,1.754,0,0,1,22.56-4.913,1.828,1.828,0,0,1,23.309-6.4a2.961,2.961,0,0,1,1.9-.6,3.081,3.081,0,0,1,1.99.609,1.934,1.934,0,0,1,.759,1.581H26.419a.951.951,0,0,0-.33-.74,1.265,1.265,0,0,0-.876-.3,1.367,1.367,0,0,0-.828.235.74.74,0,0,0-.321.628.625.625,0,0,0,.3.552,4.1,4.1,0,0,0,1.206.4,5.709,5.709,0,0,1,1.425.476,2.018,2.018,0,0,1,.768.663,1.692,1.692,0,0,1,.251.939,1.789,1.789,0,0,1-.768,1.5,3.275,3.275,0,0,1-2.012.574,3.551,3.551,0,0,1-1.5-.3A2.476,2.476,0,0,1,22.7-1.016a1.983,1.983,0,0,1-.368-1.149h1.5a1.087,1.087,0,0,0,.413.841,1.6,1.6,0,0,0,1.009.3,1.56,1.56,0,0,0,.927-.232A.717.717,0,0,0,26.5-1.866ZM31,0H29.453V-6.868H31ZM29.358-8.658a.828.828,0,0,1,.225-.595.847.847,0,0,1,.644-.237.858.858,0,0,1,.647.237.822.822,0,0,1,.229.595.8.8,0,0,1-.229.585.865.865,0,0,1-.647.233.854.854,0,0,1-.644-.233A.809.809,0,0,1,29.358-8.658ZM35.5-1.1a1.4,1.4,0,0,0,.958-.336,1.149,1.149,0,0,0,.406-.832h1.454a2.266,2.266,0,0,1-.4,1.2A2.623,2.623,0,0,1,36.9-.2a3.027,3.027,0,0,1-1.384.324A2.928,2.928,0,0,1,33.23-.806a3.7,3.7,0,0,1-.844-2.577v-.159a3.639,3.639,0,0,1,.838-2.51A2.9,2.9,0,0,1,35.509-7a2.822,2.822,0,0,1,2,.714,2.558,2.558,0,0,1,.809,1.876H36.861a1.412,1.412,0,0,0-.4-.971,1.3,1.3,0,0,0-.962-.381,1.357,1.357,0,0,0-1.155.543,2.769,2.769,0,0,0-.413,1.647v.248a2.815,2.815,0,0,0,.4,1.666A1.356,1.356,0,0,0,35.5-1.1ZM43.583,0a2.381,2.381,0,0,1-.178-.641,2.4,2.4,0,0,1-1.8.768,2.423,2.423,0,0,1-1.688-.59,1.889,1.889,0,0,1-.654-1.46,1.95,1.95,0,0,1,.816-1.685A3.953,3.953,0,0,1,42.409-4.2h.946v-.451a1.2,1.2,0,0,0-.3-.854,1.183,1.183,0,0,0-.908-.321,1.359,1.359,0,0,0-.863.263.815.815,0,0,0-.336.67H39.406a1.712,1.712,0,0,1,.375-1.057A2.5,2.5,0,0,1,40.8-6.716,3.579,3.579,0,0,1,42.237-7a2.882,2.882,0,0,1,1.923.606,2.162,2.162,0,0,1,.736,1.7v3.1a3.511,3.511,0,0,0,.26,1.479V0ZM41.888-1.111a1.755,1.755,0,0,0,.86-.222,1.484,1.484,0,0,0,.606-.6V-3.225h-.832a2.274,2.274,0,0,0-1.289.3.966.966,0,0,0-.432.844.9.9,0,0,0,.3.708A1.143,1.143,0,0,0,41.888-1.111ZM48.153,0H46.611V-9.75h1.542Zm4.672-2.495a2.115,2.115,0,0,1,.349-1.177,5.481,5.481,0,0,1,1.377-1.273A5.753,5.753,0,0,1,53.8-6.1a2.252,2.252,0,0,1-.213-.92,2.264,2.264,0,0,1,.66-1.717,2.464,2.464,0,0,1,1.777-.632,2.345,2.345,0,0,1,1.654.594,1.918,1.918,0,0,1,.644,1.469,2.025,2.025,0,0,1-.292,1.063,3.46,3.46,0,0,1-.958.968l-.628.457L58.227-2.71a3.686,3.686,0,0,0,.387-1.695h1.339a4.617,4.617,0,0,1-.8,2.8L60.512,0h-1.79L58.2-.616A3.824,3.824,0,0,1,55.84.127,3.19,3.19,0,0,1,53.647-.6,2.41,2.41,0,0,1,52.825-2.495Zm3.06,1.39a2.355,2.355,0,0,0,1.46-.521l-2.019-2.38-.2.14a1.649,1.649,0,0,0-.762,1.32A1.385,1.385,0,0,0,54.78-1.5,1.519,1.519,0,0,0,55.885-1.1Zm-.851-5.954a2.361,2.361,0,0,0,.654,1.339l.7-.482.2-.159a1.142,1.142,0,0,0,.394-.9.82.82,0,0,0-.273-.619.969.969,0,0,0-.692-.257.9.9,0,0,0-.717.3A1.124,1.124,0,0,0,55.034-7.059ZM6.341,11.874h-3.8v2.831H6.982V16H.939V6.758h6V8.053H2.545V10.6h3.8ZM9.572,9.132l.044.793a2.469,2.469,0,0,1,2-.92q2.146,0,2.184,2.457V16H12.257V11.55a1.414,1.414,0,0,0-.282-.968,1.188,1.188,0,0,0-.924-.314,1.486,1.486,0,0,0-1.39.844V16H8.119V9.132Zm8.22,4.913,1.454-4.913h1.593L18.459,16H17.12l-2.4-6.868h1.6ZM23.442,16H21.9V9.132h1.542ZM21.8,7.342a.828.828,0,0,1,.225-.595.847.847,0,0,1,.644-.237.858.858,0,0,1,.647.237.822.822,0,0,1,.229.595.8.8,0,0,1-.229.585.865.865,0,0,1-.647.233.854.854,0,0,1-.644-.233A.809.809,0,0,1,21.8,7.342Zm6.913,3.2a3.817,3.817,0,0,0-.628-.051,1.415,1.415,0,0,0-1.428.813V16H25.118V9.132H26.59l.038.768A1.738,1.738,0,0,1,28.177,9a1.444,1.444,0,0,1,.546.089Zm.457,1.961a4.05,4.05,0,0,1,.4-1.819A2.921,2.921,0,0,1,30.7,9.44,3.166,3.166,0,0,1,32.36,9a3,3,0,0,1,2.257.9,3.52,3.52,0,0,1,.936,2.374l.006.362a4.086,4.086,0,0,1-.39,1.815,2.886,2.886,0,0,1-1.117,1.238,3.189,3.189,0,0,1-1.679.438,2.979,2.979,0,0,1-2.326-.968,3.707,3.707,0,0,1-.873-2.58Zm1.542.133a2.767,2.767,0,0,0,.438,1.66,1.424,1.424,0,0,0,1.219.6,1.408,1.408,0,0,0,1.216-.609,3.057,3.057,0,0,0,.435-1.784,2.732,2.732,0,0,0-.448-1.65,1.508,1.508,0,0,0-2.415-.01A3,3,0,0,0,30.716,12.636Zm7.579-3.5.044.793a2.469,2.469,0,0,1,2-.92q2.146,0,2.184,2.457V16H40.98V11.55a1.414,1.414,0,0,0-.282-.968,1.188,1.188,0,0,0-.924-.314,1.486,1.486,0,0,0-1.39.844V16H36.842V9.132Zm7.249,0,.044.717A2.471,2.471,0,0,1,47.569,9a1.9,1.9,0,0,1,1.885,1.054A2.436,2.436,0,0,1,51.562,9a2.141,2.141,0,0,1,1.692.628,2.767,2.767,0,0,1,.568,1.854V16H52.279V11.531a1.366,1.366,0,0,0-.286-.958,1.25,1.25,0,0,0-.946-.3,1.284,1.284,0,0,0-.86.282,1.49,1.49,0,0,0-.467.74L49.728,16H48.185V11.48a1.1,1.1,0,0,0-1.238-1.212,1.358,1.358,0,0,0-1.314.755V16H44.091V9.132Zm12.886,7a3.191,3.191,0,0,1-2.377-.924,3.35,3.35,0,0,1-.911-2.46v-.19a4.121,4.121,0,0,1,.4-1.838,3.02,3.02,0,0,1,1.114-1.26A2.945,2.945,0,0,1,58.252,9a2.7,2.7,0,0,1,2.168.9,3.785,3.785,0,0,1,.765,2.533v.622H56.7a2.063,2.063,0,0,0,.568,1.346,1.706,1.706,0,0,0,1.254.5,2.089,2.089,0,0,0,1.727-.857l.832.793a2.777,2.777,0,0,1-1.1.955A3.448,3.448,0,0,1,58.43,16.127Zm-.184-5.884a1.3,1.3,0,0,0-1.025.444,2.3,2.3,0,0,0-.5,1.238h2.939v-.114a1.875,1.875,0,0,0-.413-1.171A1.289,1.289,0,0,0,58.246,10.243Zm5.567-1.111.044.793a2.469,2.469,0,0,1,2-.92Q68,9,68.041,11.461V16H66.5V11.55a1.414,1.414,0,0,0-.282-.968,1.188,1.188,0,0,0-.924-.314,1.486,1.486,0,0,0-1.39.844V16H62.359V9.132Zm7.731-1.669V9.132h1.212v1.143H71.544v3.834a.844.844,0,0,0,.156.568.721.721,0,0,0,.555.175,2.376,2.376,0,0,0,.54-.063v1.193a3.8,3.8,0,0,1-1.016.146Q70,16.127,70,14.166V10.274h-1.13V9.132H70V7.462ZM78.038,16a2.38,2.38,0,0,1-.178-.641,2.595,2.595,0,0,1-3.491.178,1.889,1.889,0,0,1-.654-1.46,1.95,1.95,0,0,1,.816-1.685,3.953,3.953,0,0,1,2.333-.587h.946v-.451a1.2,1.2,0,0,0-.3-.854,1.183,1.183,0,0,0-.908-.321,1.359,1.359,0,0,0-.863.263.815.815,0,0,0-.336.67H73.861a1.712,1.712,0,0,1,.375-1.057,2.5,2.5,0,0,1,1.019-.771A3.579,3.579,0,0,1,76.692,9a2.882,2.882,0,0,1,1.923.606,2.162,2.162,0,0,1,.736,1.7v3.1a3.511,3.511,0,0,0,.26,1.479V16Zm-1.695-1.111a1.755,1.755,0,0,0,.86-.222,1.484,1.484,0,0,0,.606-.6V12.775h-.832a2.274,2.274,0,0,0-1.289.3.966.966,0,0,0-.432.844.9.9,0,0,0,.3.708A1.143,1.143,0,0,0,76.343,14.889ZM82.608,16H81.066V6.25h1.542ZM5.77,29.62a1.116,1.116,0,0,0-.428-.939A5.155,5.155,0,0,0,3.8,28.014a7.464,7.464,0,0,1-1.777-.749A2.372,2.372,0,0,1,.755,25.2a2.252,2.252,0,0,1,.911-1.841,3.687,3.687,0,0,1,2.365-.724,3.994,3.994,0,0,1,1.72.355A2.823,2.823,0,0,1,6.938,24a2.6,2.6,0,0,1,.432,1.457H5.77a1.43,1.43,0,0,0-.454-1.124,1.883,1.883,0,0,0-1.3-.406,1.962,1.962,0,0,0-1.222.335,1.114,1.114,0,0,0-.435.936,1.008,1.008,0,0,0,.47.844A5.423,5.423,0,0,0,4.38,26.7a7.093,7.093,0,0,1,1.733.729,2.756,2.756,0,0,1,.958.939,2.447,2.447,0,0,1,.3,1.241,2.2,2.2,0,0,1-.885,1.838,3.841,3.841,0,0,1-2.4.682,4.515,4.515,0,0,1-1.844-.371A3.1,3.1,0,0,1,.936,30.73,2.555,2.555,0,0,1,.47,29.207H2.076A1.5,1.5,0,0,0,2.6,30.426a2.279,2.279,0,0,0,1.492.432,1.98,1.98,0,0,0,1.26-.34A1.1,1.1,0,0,0,5.77,29.62Zm5.891,2.507A3.191,3.191,0,0,1,9.283,31.2a3.35,3.35,0,0,1-.911-2.46v-.19a4.121,4.121,0,0,1,.4-1.838,3.02,3.02,0,0,1,1.114-1.26,2.945,2.945,0,0,1,1.6-.451,2.7,2.7,0,0,1,2.168.9,3.785,3.785,0,0,1,.765,2.533v.622H9.928A2.063,2.063,0,0,0,10.5,30.4a1.706,1.706,0,0,0,1.254.5,2.089,2.089,0,0,0,1.727-.857l.832.793a2.777,2.777,0,0,1-1.1.955A3.448,3.448,0,0,1,11.661,32.127Zm-.184-5.884a1.3,1.3,0,0,0-1.025.444,2.3,2.3,0,0,0-.5,1.238h2.939v-.114a1.875,1.875,0,0,0-.413-1.171A1.289,1.289,0,0,0,11.477,26.243ZM18.434,30.9a1.4,1.4,0,0,0,.958-.336,1.149,1.149,0,0,0,.406-.832h1.454a2.266,2.266,0,0,1-.4,1.2,2.623,2.623,0,0,1-1.016.879,3.027,3.027,0,0,1-1.384.324,2.928,2.928,0,0,1-2.285-.933,3.7,3.7,0,0,1-.844-2.577v-.159a3.639,3.639,0,0,1,.838-2.51A2.9,2.9,0,0,1,18.446,25a2.822,2.822,0,0,1,2,.714,2.558,2.558,0,0,1,.809,1.876H19.8a1.412,1.412,0,0,0-.4-.971,1.3,1.3,0,0,0-.962-.381,1.357,1.357,0,0,0-1.155.543,2.769,2.769,0,0,0-.413,1.647v.248a2.815,2.815,0,0,0,.4,1.666A1.356,1.356,0,0,0,18.434,30.9Zm8.144.432a2.392,2.392,0,0,1-1.93.8,2.132,2.132,0,0,1-1.692-.654,2.781,2.781,0,0,1-.574-1.892v-4.45h1.542v4.431q0,1.308,1.085,1.308a1.524,1.524,0,0,0,1.517-.806V25.132h1.542V32H26.616Zm6.659-4.786a3.817,3.817,0,0,0-.628-.051,1.415,1.415,0,0,0-1.428.813V32H29.637V25.132H31.11l.038.768A1.738,1.738,0,0,1,32.7,25a1.444,1.444,0,0,1,.546.089ZM35.852,32H34.309V25.132h1.542Zm-1.638-8.658a.828.828,0,0,1,.225-.595.847.847,0,0,1,.644-.237.858.858,0,0,1,.647.237.822.822,0,0,1,.229.595.8.8,0,0,1-.229.585.865.865,0,0,1-.647.233.854.854,0,0,1-.644-.233A.809.809,0,0,1,34.214,23.342Zm5.25.121v1.669h1.212v1.143H39.463v3.834a.844.844,0,0,0,.156.568.721.721,0,0,0,.555.175,2.376,2.376,0,0,0,.54-.063v1.193a3.8,3.8,0,0,1-1.016.146q-1.777,0-1.777-1.961V26.274h-1.13V25.132h1.13V23.462Zm4.792,6.329,1.4-4.659H47.3l-2.729,7.909a2.218,2.218,0,0,1-2.133,1.733,2.75,2.75,0,0,1-.743-.115v-1.2l.292.019a1.5,1.5,0,0,0,.879-.212,1.409,1.409,0,0,0,.467-.714l.222-.59-2.412-6.831H42.8Z" transform="translate(696.773 844.014)" fill="#12263f"/>
      <line id="Lnea_152" data-name="Lnea 152" x1="26.889" transform="translate(329.582 599.861)" fill="none" stroke="#ffa726" stroke-linecap="round" stroke-linejoin="round" stroke-width="3"/>
      <path id="Trazado_100875" data-name="Trazado 100875" d="M597.2,598.421H550.059V585.41" transform="translate(-168.243 -96.041)" fill="none" stroke="#ffca28" stroke-linecap="round" stroke-linejoin="round" stroke-width="3"/>
      <line id="Lnea_153" data-name="Lnea 153" y1="21.193" transform="translate(545.904 443.504)" fill="none" stroke="#ffa726" stroke-linecap="round" stroke-linejoin="round" stroke-width="3"/>
      <path id="Trazado_100876" data-name="Trazado 100876" d="M1195.3,613.666h50.679v-8.84" transform="translate(-526.484 -106.822)" fill="none" stroke="#ffca28" stroke-linecap="round" stroke-linejoin="round" stroke-width="3"/>
      <line id="Lnea_154" data-name="Lnea 154" x2="32.96" transform="translate(733.312 594.242)" fill="none" stroke="#ffa726" stroke-linecap="round" stroke-linejoin="round" stroke-width="3"/>
      <path id="Trazado_100877" data-name="Trazado 100877" d="M1350.34,1109.42h47.111v4.359" transform="translate(-612.566 -386.977)" fill="none" stroke="#ffca28" stroke-linecap="round" stroke-linejoin="round" stroke-width="3"/>
      <path id="Trazado_100878" data-name="Trazado 100878" d="M416.132,1111.365H358.412v4.667" transform="translate(-61.839 -388.056)" fill="none" stroke="#ffca28" stroke-linecap="round" stroke-linejoin="round" stroke-width="3"/>
      <line id="Lnea_155" data-name="Lnea 155" x1="20.103" y2="20.103" transform="translate(410.561 828.732)" fill="none" stroke="#ffa726" stroke-linecap="round" stroke-linejoin="round" stroke-width="3"/>
      <line id="Lnea_156" data-name="Lnea 156" y2="21.193" transform="translate(545.904 865.198)" fill="none" stroke="#ffca28" stroke-linecap="round" stroke-linejoin="round" stroke-width="3"/>
      <path id="Trazado_100879" data-name="Trazado 100879" d="M1188.089,1341.1l12.257,17.3h10.827" transform="translate(-522.483 -515.608)" fill="none" stroke="#ffa726" stroke-linecap="round" stroke-linejoin="round" stroke-width="3"/>
    </g>
  </g>
</svg>
