<svg xmlns="http://www.w3.org/2000/svg" width="85.714" height="100" viewBox="0 0 85.714 100">
  <g id="Icons" transform="translate(-8 -4)">
    <g id="Grupo_53830" data-name="Grupo 53830" transform="translate(8 4)">
      <g id="Grupo_53787" data-name="Grupo 53787" transform="translate(0 14.286)">
        <path id="Trazado_100500" data-name="Trazado 100500" d="M68.714,94.143V90.571H61.571V84.532a5.333,5.333,0,0,1,2.961-4.793l2.643-1.321a21.412,21.412,0,0,1,9.507-18.88l2.746-1.83V12H8V97.714H74.379a7.093,7.093,0,0,1-1.941-3.571Z" transform="translate(-8 -12)" fill="#f0f0f0"/>
      </g>
      <g id="Grupo_53788" data-name="Grupo 53788" transform="translate(0 14.286)">
        <path id="Trazado_100501" data-name="Trazado 100501" d="M8,12h7.143V97.714H8Z" transform="translate(-8 -12)" fill="#d2d2d2"/>
      </g>
      <g id="Grupo_53789" data-name="Grupo 53789" transform="translate(21.429 0)">
        <path id="Trazado_100502" data-name="Trazado 100502" d="M41.429,11.143a7.143,7.143,0,1,0-14.286,0H20v7.143H48.571V11.143Zm-7.143,3.571a3.571,3.571,0,1,1,3.571-3.571A3.57,3.57,0,0,1,34.286,14.714Z" transform="translate(-20 -4)" fill="#505050"/>
      </g>
      <g id="Grupo_53790" data-name="Grupo 53790" transform="translate(28.571)">
        <path id="Trazado_100503" data-name="Trazado 100503" d="M32.929,4.252A7.059,7.059,0,0,0,24,11.143h3.571A7.127,7.127,0,0,1,32.929,4.252Z" transform="translate(-24 -4)" fill="#3c3c3c"/>
      </g>
      <g id="Grupo_53791" data-name="Grupo 53791" transform="translate(21.429 7.143)">
        <path id="Trazado_100504" data-name="Trazado 100504" d="M20,8h3.571v7.143H20Z" transform="translate(-20 -8)" fill="#3c3c3c"/>
      </g>
      <g id="Grupo_53792" data-name="Grupo 53792" transform="translate(25 21.429)">
        <path id="Trazado_100505" data-name="Trazado 100505" d="M22,16H43.429V26.714H22Z" transform="translate(-22 -16)" fill="#64c8f0"/>
      </g>
      <g id="Grupo_53793" data-name="Grupo 53793" transform="translate(25 35.714)">
        <path id="Trazado_100506" data-name="Trazado 100506" d="M22,24H43.429V34.714H22Z" transform="translate(-22 -24)" fill="#fab400"/>
      </g>
      <g id="Grupo_53794" data-name="Grupo 53794" transform="translate(25 50)">
        <path id="Trazado_100507" data-name="Trazado 100507" d="M22,32H43.429V42.714H22Z" transform="translate(-22 -32)" fill="#64c8f0"/>
      </g>
      <g id="Grupo_53795" data-name="Grupo 53795" transform="translate(25 64.286)">
        <path id="Trazado_100508" data-name="Trazado 100508" d="M22,40H43.429V50.714H22Z" transform="translate(-22 -40)" fill="#fab400"/>
      </g>
      <g id="Grupo_53796" data-name="Grupo 53796" transform="translate(25 78.571)">
        <path id="Trazado_100509" data-name="Trazado 100509" d="M22,48H43.429V58.714H22Z" transform="translate(-22 -48)" fill="#64c8f0"/>
      </g>
      <g id="Grupo_53797" data-name="Grupo 53797" transform="translate(25 21.429)">
        <path id="Trazado_100510" data-name="Trazado 100510" d="M22,16h3.571V26.714H22Z" transform="translate(-22 -16)" fill="#46aad2"/>
      </g>
      <g id="Grupo_53798" data-name="Grupo 53798" transform="translate(25 35.714)">
        <path id="Trazado_100511" data-name="Trazado 100511" d="M22,24h3.571V34.714H22Z" transform="translate(-22 -24)" fill="#dc9600"/>
      </g>
      <g id="Grupo_53799" data-name="Grupo 53799" transform="translate(25 50)">
        <path id="Trazado_100512" data-name="Trazado 100512" d="M22,32h3.571V42.714H22Z" transform="translate(-22 -32)" fill="#46aad2"/>
      </g>
      <g id="Grupo_53800" data-name="Grupo 53800" transform="translate(25 64.286)">
        <path id="Trazado_100513" data-name="Trazado 100513" d="M22,40h3.571V50.714H22Z" transform="translate(-22 -40)" fill="#dc9600"/>
      </g>
      <g id="Grupo_53801" data-name="Grupo 53801" transform="translate(25 78.571)">
        <path id="Trazado_100514" data-name="Trazado 100514" d="M22,48h3.571V58.714H22Z" transform="translate(-22 -48)" fill="#46aad2"/>
      </g>
      <g id="Grupo_53802" data-name="Grupo 53802" transform="translate(46.429 25)">
        <path id="Trazado_100515" data-name="Trazado 100515" d="M34,18v3.571H44.714V32.286H41.143V30.5l-3.571,3.571,3.571,3.571V35.857h7.143V18Z" transform="translate(-34 -18)" fill="#fa6450"/>
      </g>
      <g id="Grupo_53803" data-name="Grupo 53803" transform="translate(46.429 53.571)">
        <path id="Trazado_100516" data-name="Trazado 100516" d="M34,34v3.571H44.714V48.286H41.143V46.5l-3.571,3.571,3.571,3.571V51.857h7.143V34Z" transform="translate(-34 -34)" fill="#fa6450"/>
      </g>
      <g id="Grupo_53804" data-name="Grupo 53804" transform="translate(10.714 39.286)">
        <path id="Trazado_100517" data-name="Trazado 100517" d="M28.286,26v3.571H17.571V40.286h3.571V38.5l3.571,3.571-3.571,3.571V43.857H14V26Z" transform="translate(-14 -26)" fill="#fa6450"/>
      </g>
      <g id="Grupo_53805" data-name="Grupo 53805" transform="translate(10.714 67.857)">
        <path id="Trazado_100518" data-name="Trazado 100518" d="M28.286,42v3.571H17.571V56.286h3.571V54.5l3.571,3.571-3.571,3.571V59.857H14V42Z" transform="translate(-14 -42)" fill="#fa6450"/>
      </g>
      <g id="Grupo_53806" data-name="Grupo 53806" transform="translate(10.714 21.429)">
        <path id="Trazado_100519" data-name="Trazado 100519" d="M19.357,26.714a5.357,5.357,0,1,1,5.357-5.357A5.357,5.357,0,0,1,19.357,26.714Z" transform="translate(-14 -16)" fill="#3cc8b4"/>
      </g>
      <g id="Grupo_53807" data-name="Grupo 53807" transform="translate(10.714 21.429)">
        <path id="Trazado_100520" data-name="Trazado 100520" d="M17.571,21.357a5.34,5.34,0,0,1,3.571-5.029A5.289,5.289,0,0,0,19.357,16a5.357,5.357,0,0,0,0,10.714,5.289,5.289,0,0,0,1.786-.329A5.34,5.34,0,0,1,17.571,21.357Z" transform="translate(-14 -16)" fill="#1eaa96"/>
      </g>
      <g id="Grupo_53808" data-name="Grupo 53808" transform="translate(57.143 82.143)">
        <path id="Trazado_100521" data-name="Trazado 100521" d="M40,57.143V54.675a1.783,1.783,0,0,1,.988-1.6L47.143,50l3.571,7.143Z" transform="translate(-40 -50)" fill="#fa6450"/>
      </g>
      <g id="Grupo_53809" data-name="Grupo 53809" transform="translate(57.143 82.143)">
        <path id="Trazado_100522" data-name="Trazado 100522" d="M44.559,53.079l3.3-1.65L47.143,50l-6.155,3.079a1.783,1.783,0,0,0-.988,1.6v2.468h3.571V54.675A1.783,1.783,0,0,1,44.559,53.079Z" transform="translate(-40 -50)" fill="#dc4632"/>
      </g>
      <g id="Grupo_53810" data-name="Grupo 53810" transform="translate(75 82.143)">
        <path id="Trazado_100523" data-name="Trazado 100523" d="M60.714,57.143V54.675a1.783,1.783,0,0,0-.988-1.6L53.571,50,50,57.143Z" transform="translate(-50 -50)" fill="#fa6450"/>
      </g>
      <g id="Grupo_53811" data-name="Grupo 53811" transform="translate(62.711 64.286)">
        <path id="Trazado_100524" data-name="Trazado 100524" d="M52.6,40.509,51.836,40l-.764.509A17.856,17.856,0,0,0,43.466,58.87L44.693,65H58.979l1.227-6.13A17.862,17.862,0,0,0,52.6,40.509Z" transform="translate(-43.118 -40)" fill="#f0f0f0"/>
      </g>
      <g id="Grupo_53812" data-name="Grupo 53812" transform="translate(64.286 89.286)">
        <path id="Trazado_100525" data-name="Trazado 100525" d="M44,54H58.286v3.571H44Z" transform="translate(-44 -54)" fill="#505050"/>
      </g>
      <g id="Grupo_53813" data-name="Grupo 53813" transform="translate(64.286 89.286)">
        <path id="Trazado_100526" data-name="Trazado 100526" d="M44,54h3.571v3.571H44Z" transform="translate(-44 -54)" fill="#3c3c3c"/>
      </g>
      <g id="Grupo_53814" data-name="Grupo 53814" transform="translate(64.727 64.286)">
        <path id="Trazado_100527" data-name="Trazado 100527" d="M44.247,47.143h13.4a17.816,17.816,0,0,0-5.937-6.634L50.949,40l-.764.509A17.847,17.847,0,0,0,44.247,47.143Z" transform="translate(-44.247 -40)" fill="#fa6450"/>
      </g>
      <g id="Grupo_53815" data-name="Grupo 53815" transform="translate(62.711 64.286)">
        <path id="Trazado_100528" data-name="Trazado 100528" d="M52.834,40.679c-.08-.055-.154-.116-.236-.17L51.836,40l-.764.509A17.856,17.856,0,0,0,43.466,58.87L44.693,65h2l-1.227-6.13A17.855,17.855,0,0,1,52.834,40.679Z" transform="translate(-43.118 -40)" fill="#d2d2d2"/>
      </g>
      <g id="Grupo_53816" data-name="Grupo 53816" transform="translate(64.727 64.286)">
        <path id="Trazado_100529" data-name="Trazado 100529" d="M51.947,40.689c-.082-.057-.152-.125-.236-.18L50.949,40l-.764.509a17.831,17.831,0,0,0-5.937,6.634h2A17.841,17.841,0,0,1,51.947,40.689Z" transform="translate(-44.247 -40)" fill="#dc4632"/>
      </g>
      <g id="Grupo_53817" data-name="Grupo 53817" transform="translate(67.857 75)">
        <path id="Trazado_100530" data-name="Trazado 100530" d="M49.571,53.143a3.571,3.571,0,1,1,3.571-3.571A3.57,3.57,0,0,1,49.571,53.143Z" transform="translate(-46 -46)" fill="#64c8f0"/>
      </g>
      <g id="Grupo_53818" data-name="Grupo 53818" transform="translate(67.857 92.857)">
        <path id="Trazado_100531" data-name="Trazado 100531" d="M46,56v2.093a3.573,3.573,0,0,0,1.046,2.525l2.525,2.525L52.1,60.618a3.573,3.573,0,0,0,1.046-2.525V56Z" transform="translate(-46 -56)" fill="#fab400"/>
      </g>
      <g id="Grupo_53819" data-name="Grupo 53819" transform="translate(67.857 92.857)">
        <path id="Trazado_100532" data-name="Trazado 100532" d="M50.618,60.618a3.573,3.573,0,0,1-1.046-2.525V56H46v2.093a3.573,3.573,0,0,0,1.046,2.525l2.525,2.525,1.786-1.786Z" transform="translate(-46 -56)" fill="#dc9600"/>
      </g>
      <g id="Grupo_53820" data-name="Grupo 53820" transform="translate(37.5 25)">
        <path id="Trazado_100533" data-name="Trazado 100533" d="M29,18h3.571v3.571H29Z" transform="translate(-29 -18)" fill="#f0f0f0"/>
      </g>
      <g id="Grupo_53821" data-name="Grupo 53821" transform="translate(30.357 25)">
        <path id="Trazado_100534" data-name="Trazado 100534" d="M25,18h3.571v3.571H25Z" transform="translate(-25 -18)" fill="#f0f0f0"/>
      </g>
      <g id="Grupo_53822" data-name="Grupo 53822" transform="translate(37.5 39.286)">
        <path id="Trazado_100535" data-name="Trazado 100535" d="M29,26h3.571v3.571H29Z" transform="translate(-29 -26)" fill="#f0f0f0"/>
      </g>
      <g id="Grupo_53823" data-name="Grupo 53823" transform="translate(30.357 39.286)">
        <path id="Trazado_100536" data-name="Trazado 100536" d="M25,26h3.571v3.571H25Z" transform="translate(-25 -26)" fill="#f0f0f0"/>
      </g>
      <g id="Grupo_53824" data-name="Grupo 53824" transform="translate(37.5 53.571)">
        <path id="Trazado_100537" data-name="Trazado 100537" d="M29,34h3.571v3.571H29Z" transform="translate(-29 -34)" fill="#f0f0f0"/>
      </g>
      <g id="Grupo_53825" data-name="Grupo 53825" transform="translate(30.357 53.571)">
        <path id="Trazado_100538" data-name="Trazado 100538" d="M25,34h3.571v3.571H25Z" transform="translate(-25 -34)" fill="#f0f0f0"/>
      </g>
      <g id="Grupo_53826" data-name="Grupo 53826" transform="translate(37.5 67.857)">
        <path id="Trazado_100539" data-name="Trazado 100539" d="M29,42h3.571v3.571H29Z" transform="translate(-29 -42)" fill="#f0f0f0"/>
      </g>
      <g id="Grupo_53827" data-name="Grupo 53827" transform="translate(30.357 67.857)">
        <path id="Trazado_100540" data-name="Trazado 100540" d="M25,42h3.571v3.571H25Z" transform="translate(-25 -42)" fill="#f0f0f0"/>
      </g>
      <g id="Grupo_53828" data-name="Grupo 53828" transform="translate(37.5 82.143)">
        <path id="Trazado_100541" data-name="Trazado 100541" d="M29,50h3.571v3.571H29Z" transform="translate(-29 -50)" fill="#f0f0f0"/>
      </g>
      <g id="Grupo_53829" data-name="Grupo 53829" transform="translate(30.357 82.143)">
        <path id="Trazado_100542" data-name="Trazado 100542" d="M25,50h3.571v3.571H25Z" transform="translate(-25 -50)" fill="#f0f0f0"/>
      </g>
    </g>
  </g>
</svg>
