<svg xmlns="http://www.w3.org/2000/svg" width="87.98" height="87.98" viewBox="0 0 87.98 87.98">
  <g id="Icons" transform="translate(-4 -4)">
    <g id="Grupo_53872" data-name="Grupo 53872" transform="translate(4 4)">
      <g id="Grupo_53849" data-name="Grupo 53849" transform="translate(31.422 43.99)">
        <path id="Trazado_100558" data-name="Trazado 100558" d="M24,38.284V36.113a1.569,1.569,0,0,1,.869-1.4L30.284,32l3.142,6.284Z" transform="translate(-24 -32)" fill="#fa6450"/>
      </g>
      <g id="Grupo_53850" data-name="Grupo 53850" transform="translate(31.422 43.99)">
        <path id="Trazado_100559" data-name="Trazado 100559" d="M28.011,34.709l2.9-1.452L30.284,32l-5.416,2.709a1.569,1.569,0,0,0-.869,1.4v2.171h3.142V36.113A1.569,1.569,0,0,1,28.011,34.709Z" transform="translate(-24 -32)" fill="#dc4632"/>
      </g>
      <g id="Grupo_53851" data-name="Grupo 53851" transform="translate(47.132 43.99)">
        <path id="Trazado_100560" data-name="Trazado 100560" d="M43.426,38.284V36.113a1.569,1.569,0,0,0-.869-1.4L37.142,32,34,38.284Z" transform="translate(-34 -32)" fill="#fa6450"/>
      </g>
      <g id="Grupo_53852" data-name="Grupo 53852" transform="translate(53.021 8.606)">
        <path id="Trazado_100561" data-name="Trazado 100561" d="M66.423,44.862A37.717,37.717,0,0,0,41.767,9.478l3.964,3.962-7.983,7.983A25.125,25.125,0,0,1,53.855,44.862H47.57L60.139,57.431,72.708,44.862Z" transform="translate(-37.748 -9.478)" fill="#fab400"/>
      </g>
      <g id="Grupo_53853" data-name="Grupo 53853" transform="translate(31.422 53.021)">
        <path id="Trazado_100562" data-name="Trazado 100562" d="M67.99,45.731l-7.983-7.983A25.125,25.125,0,0,1,36.569,53.855V47.57L24,60.139,36.569,72.708V66.423A37.719,37.719,0,0,0,71.952,41.767Z" transform="translate(-24 -37.748)" fill="#3cc8b4"/>
      </g>
      <g id="Grupo_53854" data-name="Grupo 53854" transform="translate(0 31.422)">
        <path id="Trazado_100563" data-name="Trazado 100563" d="M38.961,60.008A25.124,25.124,0,0,1,22.853,36.569h6.284L16.569,24,4,36.569h6.284A37.719,37.719,0,0,0,34.941,71.952L30.977,67.99Z" transform="translate(-4 -24)" fill="#64c8f0"/>
      </g>
      <g id="Grupo_53855" data-name="Grupo 53855" transform="translate(8.606)">
        <path id="Trazado_100564" data-name="Trazado 100564" d="M21.423,38.961A25.126,25.126,0,0,1,44.862,22.853v6.284L57.431,16.569,44.862,4v6.284A37.717,37.717,0,0,0,9.478,34.941l3.962-3.964Z" transform="translate(-9.478 -4)" fill="#fa6450"/>
      </g>
      <g id="Grupo_53856" data-name="Grupo 53856" transform="translate(53.021 8.606)">
        <path id="Trazado_100565" data-name="Trazado 100565" d="M53.855,44.862H57A25.124,25.124,0,0,0,40.889,21.423l8.078-8.353a37.477,37.477,0,0,0-7.2-3.591l3.964,3.962-7.983,7.983A25.125,25.125,0,0,1,53.855,44.862Z" transform="translate(-37.748 -9.478)" fill="#dc9600"/>
      </g>
      <g id="Grupo_53857" data-name="Grupo 53857" transform="translate(62.843 43.99)">
        <path id="Trazado_100566" data-name="Trazado 100566" d="M47.142,32H44L56.569,44.569,58.14,43Z" transform="translate(-44 -32)" fill="#dc9600"/>
      </g>
      <g id="Grupo_53858" data-name="Grupo 53858" transform="translate(47.132 53.019)">
        <path id="Trazado_100567" data-name="Trazado 100567" d="M34,53.855A25.094,25.094,0,0,0,56.466,39.917l-2.17-2.17A25.142,25.142,0,0,1,34,53.642Z" transform="translate(-34 -37.747)" fill="#1eaa96"/>
      </g>
      <g id="Grupo_53859" data-name="Grupo 53859" transform="translate(31.422 62.843)">
        <path id="Trazado_100568" data-name="Trazado 100568" d="M27.142,56.569l9.426-9.426V44L24,56.569,36.569,69.137V66Z" transform="translate(-24 -44)" fill="#1eaa96"/>
      </g>
      <g id="Grupo_53860" data-name="Grupo 53860" transform="translate(0 31.422)">
        <path id="Trazado_100569" data-name="Trazado 100569" d="M16.569,24,4,36.569H7.142l11-11Z" transform="translate(-4 -24)" fill="#46aad2"/>
      </g>
      <g id="Grupo_53861" data-name="Grupo 53861" transform="translate(6.284 43.99)">
        <path id="Trazado_100570" data-name="Trazado 100570" d="M11.142,32H8A37.719,37.719,0,0,0,32.657,67.384L29.775,64.5A37.663,37.663,0,0,1,11.142,32Z" transform="translate(-8 -32)" fill="#46aad2"/>
      </g>
      <g id="Grupo_53862" data-name="Grupo 53862" transform="translate(8.606 0)">
        <path id="Trazado_100571" data-name="Trazado 100571" d="M14.062,31.6A37.688,37.688,0,0,1,48,10.284V7.142L44.862,4v6.284A37.717,37.717,0,0,0,9.478,34.941l3.962-3.964Z" transform="translate(-9.478 -4)" fill="#dc4632"/>
      </g>
      <g id="Grupo_53863" data-name="Grupo 53863" transform="translate(36.321 28.279)">
        <path id="Trazado_100572" data-name="Trazado 100572" d="M35.46,22.448,34.788,22l-.672.448A15.71,15.71,0,0,0,27.424,38.6L28.5,44H41.072L42.152,38.6A15.715,15.715,0,0,0,35.46,22.448Z" transform="translate(-27.118 -22)" fill="#f0f0f0"/>
      </g>
      <g id="Grupo_53864" data-name="Grupo 53864" transform="translate(37.706 50.275)">
        <path id="Trazado_100573" data-name="Trazado 100573" d="M28,36H40.569v3.142H28Z" transform="translate(-28 -36)" fill="#505050"/>
      </g>
      <g id="Grupo_53865" data-name="Grupo 53865" transform="translate(37.706 50.275)">
        <path id="Trazado_100574" data-name="Trazado 100574" d="M28,36h3.142v3.142H28Z" transform="translate(-28 -36)" fill="#3c3c3c"/>
      </g>
      <g id="Grupo_53866" data-name="Grupo 53866" transform="translate(38.094 28.279)">
        <path id="Trazado_100575" data-name="Trazado 100575" d="M28.247,28.284H40.038a15.675,15.675,0,0,0-5.224-5.837L34.143,22l-.672.448a15.7,15.7,0,0,0-5.224,5.837Z" transform="translate(-28.247 -22)" fill="#fa6450"/>
      </g>
      <g id="Grupo_53867" data-name="Grupo 53867" transform="translate(36.321 28.279)">
        <path id="Trazado_100576" data-name="Trazado 100576" d="M35.666,22.6c-.071-.049-.135-.1-.207-.149L34.788,22l-.672.448A15.71,15.71,0,0,0,27.424,38.6L28.5,44h1.758L29.182,38.6A15.709,15.709,0,0,1,35.666,22.6Z" transform="translate(-27.118 -22)" fill="#d2d2d2"/>
      </g>
      <g id="Grupo_53868" data-name="Grupo 53868" transform="translate(38.094 28.279)">
        <path id="Trazado_100577" data-name="Trazado 100577" d="M35.021,22.606c-.072-.05-.134-.11-.207-.159L34.143,22l-.672.448a15.688,15.688,0,0,0-5.224,5.837h1.758A15.7,15.7,0,0,1,35.021,22.606Z" transform="translate(-28.247 -22)" fill="#dc4632"/>
      </g>
      <g id="Grupo_53869" data-name="Grupo 53869" transform="translate(40.848 37.706)">
        <path id="Trazado_100578" data-name="Trazado 100578" d="M33.142,34.284a3.142,3.142,0,1,1,3.142-3.142A3.141,3.141,0,0,1,33.142,34.284Z" transform="translate(-30 -28)" fill="#64c8f0"/>
      </g>
      <g id="Grupo_53870" data-name="Grupo 53870" transform="translate(40.848 53.417)">
        <path id="Trazado_100579" data-name="Trazado 100579" d="M30,38v1.841a3.143,3.143,0,0,0,.921,2.222l2.222,2.222,2.222-2.222a3.143,3.143,0,0,0,.921-2.222V38Z" transform="translate(-30 -38)" fill="#fab400"/>
      </g>
      <g id="Grupo_53871" data-name="Grupo 53871" transform="translate(40.848 53.417)">
        <path id="Trazado_100580" data-name="Trazado 100580" d="M34.063,42.063a3.143,3.143,0,0,1-.921-2.222V38H30v1.841a3.143,3.143,0,0,0,.921,2.222l2.222,2.222,1.571-1.571Z" transform="translate(-30 -38)" fill="#dc9600"/>
      </g>
    </g>
  </g>
</svg>
