<svg xmlns="http://www.w3.org/2000/svg" width="295" height="196.457" viewBox="0 0 295 196.457">
  <g id="Grupo_54186" data-name="Grupo 54186" transform="translate(-180 -664)">
    <path id="Trazado_100469" data-name="Trazado 100469" d="M298.055,33.89l54.069,68.373a29.827,29.827,0,0,1,0,37.023l-54.069,68.373A29.853,29.853,0,0,1,274.635,219H93.418a29.858,29.858,0,0,1-29.855-29.855V52.4A29.858,29.858,0,0,1,93.418,22.546H274.635A29.853,29.853,0,0,1,298.055,33.89Z" transform="translate(116.437 641.454)" fill="#4dd0e1"/>
    <path id="Trazado_109793" data-name="Trazado 109793" d="M10.441,0H-4.082V-46.234l-14.266,4.168v-11l27.457-9.5h1.332Z" transform="translate(310 793)" fill="#fff"/>
  </g>
</svg>
