<svg xmlns="http://www.w3.org/2000/svg" width="295" height="196.457" viewBox="0 0 295 196.457">
  <g id="Grupo_54188" data-name="Grupo 54188" transform="translate(-67 -476.457)">
    <path id="Trazado_100474" data-name="Trazado 100474" d="M298.055,33.89l54.069,68.373a29.827,29.827,0,0,1,0,37.023l-54.069,68.373A29.853,29.853,0,0,1,274.635,219H93.418a29.858,29.858,0,0,1-29.855-29.855V52.4A29.858,29.858,0,0,1,93.418,22.546H274.635A29.853,29.853,0,0,1,298.055,33.89Z" transform="translate(3.437 453.911)" fill="#039be5"/>
    <path id="Trazado_109794" data-name="Trazado 109794" d="M-8.422-37.34H-1.59q8.121,0,8.121-7.949A6.874,6.874,0,0,0,4.6-50.338,7.332,7.332,0,0,0-.859-52.293a7.849,7.849,0,0,0-5.006,1.676,5.113,5.113,0,0,0-2.127,4.168h-14.48a14.823,14.823,0,0,1,2.75-8.809A18.16,18.16,0,0,1-12.1-61.295a26.076,26.076,0,0,1,10.721-2.17q10.441,0,16.414,4.77T21.012-45.59a13.215,13.215,0,0,1-2.471,7.627,17.61,17.61,0,0,1-7.2,5.822,16.82,16.82,0,0,1,7.82,5.479A14.428,14.428,0,0,1,22-17.574,16.144,16.144,0,0,1,15.555-4.168Q9.109.859-1.375.859A27.745,27.745,0,0,1-12.783-1.482a17.874,17.874,0,0,1-7.971-6.488A16.868,16.868,0,0,1-23.461-17.4H-8.895a6.52,6.52,0,0,0,2.32,4.984A8.192,8.192,0,0,0-.859-10.312a8.58,8.58,0,0,0,6.1-2.127A7.109,7.109,0,0,0,7.52-17.875q0-4.727-2.363-6.7a9.879,9.879,0,0,0-6.531-1.977H-8.422Z" transform="translate(197 607)" fill="#fff"/>
  </g>
</svg>
